<svg width="35" height="35" viewBox="0 0 35 35" fill="none" xmlns="http://www.w3.org/2000/svg">
<circle cx="17.5" cy="17.5" r="17.5" fill="#DBFFFB"/>
<path fill-rule="evenodd" clip-rule="evenodd" d="M7.12573 9.21814C7.12573 8.80393 7.46152 8.46814 7.87573 8.46814H27.8757C28.2899 8.46814 28.6257 8.80393 28.6257 9.21814V27.2181C28.6257 27.6324 28.2899 27.9681 27.8757 27.9681H7.87573C7.46152 27.9681 7.12573 27.6324 7.12573 27.2181V9.21814ZM8.62573 9.96814V26.4681H27.1257V9.96814H8.62573Z" fill="#333333"/>
<path fill-rule="evenodd" clip-rule="evenodd" d="M19.1257 15.2181C19.1257 14.8039 19.4615 14.4681 19.8757 14.4681H23.8757C24.2899 14.4681 24.6257 14.8039 24.6257 15.2181V22.2181C24.6257 22.6324 24.2899 22.9681 23.8757 22.9681H19.8757C19.4615 22.9681 19.1257 22.6324 19.1257 22.2181V15.2181ZM20.6257 15.9681V21.4681H23.1257V15.9681H20.6257Z" fill="#333333"/>
<path fill-rule="evenodd" clip-rule="evenodd" d="M14.3757 6.46814C14.7899 6.46814 15.1257 6.80393 15.1257 7.21814V11.2181C15.1257 11.6324 14.7899 11.9681 14.3757 11.9681C13.9615 11.9681 13.6257 11.6324 13.6257 11.2181V7.21814C13.6257 6.80393 13.9615 6.46814 14.3757 6.46814Z" fill="#333333"/>
<path fill-rule="evenodd" clip-rule="evenodd" d="M21.3757 6.46814C21.7899 6.46814 22.1257 6.80393 22.1257 7.21814V11.2181C22.1257 11.6324 21.7899 11.9681 21.3757 11.9681C20.9615 11.9681 20.6257 11.6324 20.6257 11.2181V7.21814C20.6257 6.80393 20.9615 6.46814 21.3757 6.46814Z" fill="#333333"/>
<path fill-rule="evenodd" clip-rule="evenodd" d="M11.1257 15.2181C11.1257 14.8039 11.4615 14.4681 11.8757 14.4681H15.8757C16.2899 14.4681 16.6257 14.8039 16.6257 15.2181V22.2181C16.6257 22.6324 16.2899 22.9681 15.8757 22.9681H11.8757C11.4615 22.9681 11.1257 22.6324 11.1257 22.2181C11.1257 21.8039 11.4615 21.4681 11.8757 21.4681H15.1257V15.9681H11.8757C11.4615 15.9681 11.1257 15.6324 11.1257 15.2181Z" fill="#333333"/>
<path fill-rule="evenodd" clip-rule="evenodd" d="M12.1257 18.7181C12.1257 18.3039 12.4615 17.9681 12.8757 17.9681H15.8757C16.2899 17.9681 16.6257 18.3039 16.6257 18.7181C16.6257 19.1324 16.2899 19.4681 15.8757 19.4681H12.8757C12.4615 19.4681 12.1257 19.1324 12.1257 18.7181Z" fill="#333333"/>
</svg>
