<svg width="36" height="36" viewBox="0 0 36 36" fill="none" xmlns="http://www.w3.org/2000/svg">
<circle cx="17.5781" cy="18.2347" r="17.5" fill="#DBFFFB"/>
<path fill-rule="evenodd" clip-rule="evenodd" d="M14.598 13.6586C14.9162 13.3934 15.3891 13.4364 15.6543 13.7546L17.5781 16.0632L19.502 13.7546C19.7671 13.4364 20.2401 13.3934 20.5583 13.6586C20.8765 13.9237 20.9195 14.3967 20.6543 14.7149L18.1543 17.7149C18.0118 17.8859 17.8007 17.9847 17.5781 17.9847C17.3555 17.9847 17.1445 17.8859 17.002 17.7149L14.502 14.7149C14.2368 14.3967 14.2798 13.9237 14.598 13.6586Z" fill="#1C6C85"/>
<path fill-rule="evenodd" clip-rule="evenodd" d="M10.706 13.645L10.7108 13.6378C10.7159 13.6303 10.7245 13.6177 10.7365 13.6004C10.7607 13.5658 10.7989 13.5124 10.8508 13.4436C10.9547 13.3058 11.1129 13.107 11.3233 12.873C11.7455 12.4034 12.3701 11.8013 13.1791 11.2667C14.782 10.2077 17.1022 9.41174 20.0828 10.4435C23.0858 11.483 24.506 13.4828 25.1927 15.2281C25.5392 16.1087 25.6987 16.9269 25.7711 17.5242C25.8072 17.8221 25.8213 18.0625 25.8266 18.2252C25.8292 18.3064 25.8296 18.368 25.8294 18.4074C25.8293 18.4271 25.829 18.4412 25.8288 18.4494L25.8287 18.4566C25.8287 18.4566 25.8287 18.4566 25.8287 18.4566C25.8287 18.4563 25.8345 18.4562 26.5781 18.4847L27.3276 18.5136C27.3117 18.9275 26.9632 19.2501 26.5493 19.2342C26.136 19.2183 25.8137 18.8708 25.8286 18.4577C25.8286 18.4575 25.8286 18.4568 25.8287 18.4566L26.5781 18.4847C27.3276 18.5136 27.3276 18.514 27.3276 18.5136L27.3277 18.5094L27.3279 18.5029L27.3285 18.4827C27.3288 18.4662 27.3292 18.4435 27.3293 18.415C27.3296 18.3581 27.329 18.2778 27.3258 18.1769C27.3193 17.9753 27.3022 17.6904 27.2602 17.3437C27.1763 16.652 26.9921 15.7046 26.5885 14.6789C25.7752 12.6117 24.0704 10.2365 20.5735 9.026C17.054 7.80773 14.2492 8.76183 12.3522 10.0152C11.4112 10.637 10.692 11.3317 10.2079 11.87C9.96523 12.1399 9.7797 12.3726 9.6531 12.5405C9.58975 12.6246 9.54101 12.6925 9.5071 12.7411C9.49015 12.7653 9.47688 12.7847 9.46735 12.7989L9.45583 12.8161L9.45217 12.8216L9.45087 12.8236C9.45065 12.8239 9.44992 12.825 10.0609 13.2235L9.44992 12.825C9.22365 13.172 9.32147 13.6367 9.66842 13.863C10.0152 14.0891 10.4796 13.9915 10.706 13.645Z" fill="#1C6C85"/>
<path fill-rule="evenodd" clip-rule="evenodd" d="M8.57812 17.4847C8.99234 17.4847 9.32812 17.8205 9.32812 18.2347H8.57812C9.32812 18.2347 9.32813 18.235 9.32812 18.2347L9.32824 18.2433C9.32839 18.2526 9.3287 18.2682 9.32939 18.2899C9.33077 18.3332 9.33364 18.4003 9.3396 18.4883C9.35152 18.6645 9.37573 18.9233 9.42482 19.2415C9.52331 19.8798 9.72018 20.7456 10.1112 21.6581C10.8867 23.4676 12.4174 25.4553 15.5163 26.2587C18.6448 27.0698 20.8551 26.2028 22.294 25.1589C23.023 24.63 23.5611 24.0492 23.916 23.6011C24.0929 23.3777 24.2227 23.1893 24.3066 23.0599C24.3485 22.9952 24.3788 22.9455 24.3976 22.9137C24.407 22.8978 24.4135 22.8864 24.4172 22.88L24.42 22.875C24.6186 22.5118 25.0738 22.3781 25.4373 22.5763C25.8009 22.7747 25.9349 23.2302 25.7365 23.5939L25.0781 23.2347C25.7365 23.5939 25.7368 23.5935 25.7365 23.5939L25.7345 23.5977L25.7313 23.6035L25.7214 23.621C25.7133 23.6352 25.7022 23.6545 25.688 23.6785C25.6596 23.7264 25.6188 23.7931 25.5655 23.8754C25.4589 24.0399 25.3016 24.2675 25.0918 24.5324C24.6733 25.0609 24.0395 25.7458 23.1748 26.3731C21.4262 27.6417 18.7614 28.6497 15.1399 27.7107C11.4888 26.7642 9.6445 24.3769 8.73252 22.2489C8.27982 21.1926 8.05481 20.199 7.94236 19.4702C7.88599 19.1048 7.85747 18.8031 7.84302 18.5896C7.83579 18.4828 7.83207 18.3978 7.83015 18.3377C7.8292 18.3076 7.82869 18.2838 7.82842 18.2665L7.82817 18.2455L7.82813 18.2389L7.82813 18.2365C7.82813 18.2361 7.82812 18.2347 8.57812 18.2347H7.82812C7.82812 17.8205 8.16391 17.4847 8.57812 17.4847Z" fill="#1C6C85"/>
<path fill-rule="evenodd" clip-rule="evenodd" d="M26.5781 9.48474C26.9923 9.48474 27.3281 9.82053 27.3281 10.2347V18.2347C27.3281 18.649 26.9923 18.9847 26.5781 18.9847C26.1639 18.9847 25.8281 18.649 25.8281 18.2347V10.2347C25.8281 9.82053 26.1639 9.48474 26.5781 9.48474Z" fill="#1C6C85"/>
<path fill-rule="evenodd" clip-rule="evenodd" d="M8.57812 17.4847C8.99234 17.4847 9.32812 17.8205 9.32812 18.2347V26.2347C9.32812 26.649 8.99234 26.9847 8.57812 26.9847C8.16391 26.9847 7.82812 26.649 7.82812 26.2347V18.2347C7.82812 17.8205 8.16391 17.4847 8.57812 17.4847Z" fill="#1C6C85"/>
<path fill-rule="evenodd" clip-rule="evenodd" d="M13.8281 20.2347C13.8281 19.8205 14.1639 19.4847 14.5781 19.4847H20.5781C20.9923 19.4847 21.3281 19.8205 21.3281 20.2347C21.3281 20.649 20.9923 20.9847 20.5781 20.9847H14.5781C14.1639 20.9847 13.8281 20.649 13.8281 20.2347Z" fill="#1C6C85"/>
<path fill-rule="evenodd" clip-rule="evenodd" d="M13.8281 17.2347C13.8281 16.8205 14.1639 16.4847 14.5781 16.4847H20.5781C20.9923 16.4847 21.3281 16.8205 21.3281 17.2347C21.3281 17.649 20.9923 17.9847 20.5781 17.9847H14.5781C14.1639 17.9847 13.8281 17.649 13.8281 17.2347Z" fill="#1C6C85"/>
<path fill-rule="evenodd" clip-rule="evenodd" d="M17.5781 16.4847C17.9923 16.4847 18.3281 16.8205 18.3281 17.2347V23.2347C18.3281 23.649 17.9923 23.9847 17.5781 23.9847C17.1639 23.9847 16.8281 23.649 16.8281 23.2347V17.2347C16.8281 16.8205 17.1639 16.4847 17.5781 16.4847Z" fill="#1C6C85"/>
</svg>
