<svg width="35" height="35" viewBox="0 0 35 35" fill="none" xmlns="http://www.w3.org/2000/svg">
<circle cx="17.5" cy="17.5" r="17.5" fill="#DBFFFB"/>
<path d="M23.523 17.3143C23.5277 15.7693 22.9487 14.2795 21.9021 13.143C20.8554 12.0066 19.4182 11.3072 17.878 11.185C16.3378 11.0628 14.8083 11.5266 13.5955 12.4838C12.3826 13.4409 11.576 14.8207 11.3369 16.3471C11.802 16.3088 12.2671 16.3088 12.7281 16.3417C12.8602 15.704 13.1217 15.1002 13.4962 14.5675C13.8708 14.0348 14.3507 13.5845 14.9061 13.2445C15.4615 12.9045 16.0807 12.682 16.7255 12.5906C17.3702 12.4993 18.0269 12.5411 18.6549 12.7135C19.2829 12.8858 19.8689 13.1851 20.3767 13.5928C20.8845 14.0004 21.3034 14.5079 21.6074 15.0838C21.9114 15.6597 22.0942 16.2918 22.1443 16.9411C22.1945 17.5903 22.1111 18.243 21.8992 18.8588C22.4327 18.7822 22.9443 18.6509 23.4108 18.4894C23.4858 18.1018 23.5233 17.7092 23.523 17.3143ZM10.6091 9.60703L10.5133 9.52769C10.3729 9.43014 10.201 9.38873 10.0316 9.41163C9.8621 9.43452 9.70737 9.52006 9.59785 9.65138C9.48833 9.7827 9.43197 9.95028 9.43987 10.1211C9.44778 10.2919 9.51938 10.4536 9.64056 10.5742L10.8143 11.7479L10.9101 11.8273C11.0505 11.9248 11.2224 11.9662 11.3918 11.9434C11.5613 11.9205 11.716 11.8349 11.8256 11.7036C11.9351 11.5723 11.9914 11.4047 11.9835 11.2339C11.9756 11.0631 11.904 10.9014 11.7828 10.7808L10.6091 9.60703ZM25.1947 10.4784C25.2907 10.3379 25.3308 10.1667 25.3073 9.99815C25.2838 9.82961 25.1983 9.67588 25.0676 9.56699C24.9368 9.4581 24.7701 9.40187 24.6001 9.40927C24.4301 9.41668 24.269 9.48719 24.1482 9.60703L22.973 10.7808L22.8937 10.8765C22.7977 11.017 22.7575 11.1883 22.7811 11.3568C22.8046 11.5254 22.89 11.6791 23.0208 11.788C23.1516 11.8969 23.3182 11.9531 23.4883 11.9457C23.6583 11.9383 23.8194 11.8678 23.9402 11.7479L25.1153 10.5742L25.1947 10.4784ZM18.0551 6.94355C18.0246 6.77536 17.9323 6.62466 17.7963 6.52114C17.6603 6.41761 17.4905 6.36876 17.3202 6.38421C17.15 6.39965 16.9917 6.47827 16.8766 6.60458C16.7614 6.73089 16.6977 6.89574 16.698 7.06667V8.72605L16.709 8.84917C16.7394 9.01736 16.8318 9.16805 16.9678 9.27158C17.1038 9.3751 17.2736 9.42395 17.4439 9.4085C17.6141 9.39306 17.7724 9.31444 17.8875 9.18813C18.0027 9.06182 18.0664 8.89697 18.066 8.72605V7.0653L18.0551 6.94355ZM8.78009 19.945C10.2247 19.157 11.5653 18.9409 12.88 19.105C14.2124 19.2733 15.5612 19.8369 16.9976 20.6755C18.6433 21.6345 20.5325 21.8096 22.2425 21.5729C23.9498 21.3362 25.5394 20.6823 26.6338 19.9012C26.7815 19.7956 26.8811 19.6357 26.9109 19.4566C26.9407 19.2776 26.8981 19.094 26.7925 18.9463C26.6869 18.7987 26.527 18.699 26.3479 18.6692C26.1689 18.6395 25.9853 18.6821 25.8376 18.7877C24.9375 19.4306 23.5585 20.0093 22.0551 20.2172C20.5544 20.4251 18.9963 20.2582 17.6871 19.4935C16.1714 18.6098 14.6406 17.9477 13.0496 17.748C11.4422 17.5469 9.8143 17.8218 8.12482 18.7439C8.04596 18.7869 7.97634 18.845 7.91994 18.915C7.86354 18.9849 7.82147 19.0653 7.79613 19.1514C7.77079 19.2376 7.76267 19.328 7.77224 19.4173C7.78181 19.5066 7.80888 19.5932 7.85191 19.6721C7.9388 19.8313 8.08541 19.9496 8.25948 20.0008C8.34567 20.0261 8.436 20.0342 8.52533 20.0246C8.61466 20.0151 8.70123 19.988 8.78009 19.945ZM8.78009 22.681C10.2247 21.893 11.5653 21.6769 12.88 21.841C14.2124 22.0093 15.5612 22.5729 16.9976 23.4115C18.6433 24.3704 20.5325 24.5455 22.2425 24.3089C23.9498 24.0722 25.5394 23.4183 26.6338 22.6372C26.7815 22.5316 26.8811 22.3717 26.9109 22.1926C26.9407 22.0136 26.8981 21.83 26.7925 21.6823C26.6869 21.5347 26.527 21.435 26.3479 21.4052C26.1689 21.3755 25.9853 21.4181 25.8376 21.5236C24.9375 22.1666 23.5585 22.7453 22.0551 22.9532C20.5544 23.1611 18.9963 22.9942 17.6871 22.2295C16.1714 21.3458 14.6406 20.6837 13.0496 20.484C11.4422 20.2829 9.8143 20.5578 8.12482 21.4799C7.96555 21.5668 7.84731 21.7134 7.79613 21.8874C7.74495 22.0615 7.76501 22.2488 7.85191 22.4081C7.9388 22.5673 8.08541 22.6856 8.25948 22.7367C8.43355 22.7879 8.62082 22.7679 8.78009 22.681ZM12.88 24.577C11.5653 24.4128 10.2247 24.629 8.78009 25.417C8.70123 25.4601 8.61464 25.4872 8.52528 25.4969C8.43592 25.5065 8.34553 25.4985 8.25928 25.4732C8.08508 25.4222 7.9383 25.304 7.85122 25.1447C7.80811 25.0659 7.78095 24.9793 7.77129 24.8899C7.76164 24.8006 7.76968 24.7102 7.79496 24.6239C7.84602 24.4497 7.96418 24.3029 8.12345 24.2159C9.8143 23.2938 11.4422 23.0189 13.051 23.22C14.6406 23.4197 16.1714 24.0818 17.6885 24.9655C18.9963 25.7289 20.5544 25.8971 22.0551 25.6906C23.5572 25.4813 24.9375 24.904 25.8376 24.2596C25.9853 24.1541 26.1689 24.1115 26.3479 24.1412C26.527 24.171 26.6869 24.2707 26.7925 24.4183C26.8981 24.566 26.9407 24.7495 26.9109 24.9286C26.8811 25.1077 26.7815 25.2676 26.6338 25.3732C25.5394 26.1529 23.9484 26.8082 22.2425 27.0449C20.5325 27.2815 18.6433 27.1064 16.9976 26.1475C15.5612 25.3089 14.2124 24.7453 12.88 24.5784V24.577Z" fill="black"/>
</svg>
