<svg width="529" height="480" viewBox="0 0 529 480" fill="none" xmlns="http://www.w3.org/2000/svg">
<path opacity="0.07" d="M215.962 0.744263C43.4373 0.744263 -96.4639 140.744 -96.4639 313.39C-96.4639 374.459 -78.8902 431.396 -48.6524 479.562C-43.3299 441.13 -10.4308 411.514 29.4426 411.514C40.1337 411.514 50.2741 413.672 59.5886 417.483C64.3147 394.846 84.3661 377.857 108.364 377.857C121.119 377.857 132.728 382.678 141.538 390.576C155.441 337.037 204.078 297.549 261.892 297.549C327.645 297.549 381.421 348.608 385.918 413.259C391.24 412.111 396.792 411.514 402.436 411.514C442.309 411.514 475.208 441.13 480.531 479.562C510.769 431.396 528.342 374.459 528.342 313.39C528.434 140.744 388.533 0.744263 215.962 0.744263ZM403.583 111.22L233.306 215.404L185.082 283.728C178.245 293.417 168.426 300.534 157.093 304.023L129.103 312.656L148.237 266.28L38.0688 317.477C22.2388 326.201 5.49101 333.088 -11.8532 338.047C-19.0112 340.068 -24.7008 331.94 -20.3418 325.925L0.90258 296.447L-33.2353 282.58L1.68262 260.402L41.7855 262.698L118.32 218.113L-38.3285 198.966L7.83111 174.906C14.4384 171.462 21.734 169.442 29.1673 168.937L227.158 156.264L317.045 105.342C338.565 93.1284 363.664 88.9041 387.982 93.358L400.601 95.6538C408.217 97.0313 410.099 107.087 403.537 111.174L403.583 111.22Z" fill="#1C6C85"/>
</svg>
