<svg width="35" height="35" viewBox="0 0 35 35" fill="none" xmlns="http://www.w3.org/2000/svg">
<circle cx="17.5" cy="17.5" r="17.5" fill="#DBFFFB"/>
<path fill-rule="evenodd" clip-rule="evenodd" d="M17.5938 9.46814C12.8798 9.46814 9.09375 13.181 9.09375 17.7181C9.09375 18.1324 8.75796 18.4681 8.34375 18.4681C7.92954 18.4681 7.59375 18.1324 7.59375 17.7181C7.59375 12.3141 12.0904 7.96814 17.5938 7.96814C23.0971 7.96814 27.5938 12.3141 27.5938 17.7181C27.5938 18.1324 27.258 18.4681 26.8438 18.4681C26.4295 18.4681 26.0938 18.1324 26.0938 17.7181C26.0938 13.181 22.3077 9.46814 17.5938 9.46814Z" fill="#333333"/>
<path fill-rule="evenodd" clip-rule="evenodd" d="M10.0423 19.5045C10.2976 19.5871 10.4893 19.7996 10.5452 20.062L10.9511 21.9687L23.3445 21.979C23.5061 21.9791 23.6633 22.0315 23.7928 22.1282L27.7928 25.1174C28.0516 25.3108 28.1575 25.6481 28.0556 25.9547C27.9537 26.2613 27.6669 26.4682 27.3438 26.4682H9.34375C8.34013 26.4682 7.49184 26.0411 7.00458 25.3134C6.51862 24.5877 6.45604 23.6571 6.83412 22.7884C7.17207 22.012 7.81584 21.2189 8.32551 20.6562C8.58838 20.366 8.83187 20.1196 9.00983 19.9455C9.099 19.8582 9.1722 19.7887 9.22376 19.7403C9.24955 19.7162 9.26996 19.6973 9.28428 19.6841L9.30112 19.6686L9.30597 19.6642L9.30746 19.6629C9.30754 19.6628 9.30833 19.6621 9.81161 20.2182L9.30833 19.6621C9.50722 19.4821 9.7871 19.422 10.0423 19.5045ZM8.20949 23.387C8.43311 22.8733 8.89918 22.2659 9.36869 21.7395ZM9.36869 21.7395L9.61029 22.8743C9.68396 23.2204 9.98943 23.4679 10.3432 23.4682L23.0943 23.4788L25.0873 24.9682H9.34375C8.77312 24.9682 8.42422 24.7376 8.25095 24.4788C8.07639 24.2182 8.01512 23.8336 8.20949 23.387" fill="#333333"/>
<path fill-rule="evenodd" clip-rule="evenodd" d="M12.2637 17.2426C12.4062 17.0689 12.6191 16.9681 12.8437 16.9681H14.3437C14.5303 16.9681 14.7102 17.0377 14.8483 17.1632L20.3483 22.1632C20.6547 22.4418 20.6773 22.9162 20.3987 23.2226C20.1201 23.5291 19.6457 23.5517 19.3392 23.2731L14.0538 18.4681H13.7586L14.5792 22.5711C14.6604 22.9772 14.397 23.3723 13.9908 23.4536C13.5847 23.5348 13.1895 23.2714 13.1083 22.8652L12.1083 17.8652C12.0642 17.6449 12.1213 17.4164 12.2637 17.2426Z" fill="#333333"/>
</svg>
