<svg width="36" height="36" viewBox="0 0 36 36" fill="none" xmlns="http://www.w3.org/2000/svg">
<circle cx="18.4062" cy="17.7501" r="17.5" fill="#DBFFFB"/>
<path d="M14.9759 9.51459C15.3317 9.51459 15.6596 9.70758 15.8324 10.0187L17.0306 12.1772C17.1875 12.4598 17.1949 12.8016 17.0503 13.0907L15.8959 15.3995C15.8959 15.3995 16.2305 17.1193 17.6305 18.5194C19.0306 19.9194 20.7447 20.2482 20.7447 20.2482L23.053 19.094C23.3424 18.9493 23.6844 18.9568 23.9671 19.114L26.1317 20.3174C26.4426 20.4903 26.6353 20.8179 26.6353 21.1736V23.6586C26.6353 24.924 25.4598 25.838 24.2608 25.4334C21.7981 24.6025 17.9754 23.0204 15.5525 20.5974C13.1296 18.1745 11.5474 14.3517 10.7164 11.8891C10.3119 10.69 11.2259 9.51459 12.4913 9.51459H14.9759Z" stroke="#1C6C85" stroke-width="1.5" stroke-linejoin="round"/>
</svg>
