<svg width="16" height="16" viewBox="0 0 16 16" fill="none" xmlns="http://www.w3.org/2000/svg">
<path d="M15.9687 1.68467C15.9557 1.62559 15.9273 1.57098 15.8865 1.52638C15.8456 1.48177 15.7937 1.44876 15.736 1.43067C15.5258 1.38903 15.3082 1.40446 15.106 1.47533C15.106 1.47533 1.08666 6.51467 0.285996 7.07267C0.113996 7.19267 0.0559963 7.26267 0.0273297 7.34467C-0.111337 7.74467 0.319996 7.91667 0.319996 7.91667L3.93333 9.094C3.99443 9.10496 4.05725 9.10131 4.11666 9.08333C4.938 8.564 12.3833 3.86067 12.816 3.70267C12.8827 3.68267 12.934 3.70267 12.9207 3.75267C12.7487 4.356 6.31466 10.0713 6.27933 10.106C6.26212 10.1201 6.24871 10.1383 6.24033 10.1589C6.23194 10.1795 6.22885 10.2019 6.23133 10.224L5.894 13.752C5.894 13.752 5.75266 14.85 6.85066 13.752C7.62933 12.9727 8.37666 12.3273 8.75 12.0133C9.99266 12.8713 11.3293 13.82 11.906 14.3167C12.003 14.4106 12.1179 14.4839 12.2439 14.5324C12.3699 14.5808 12.5044 14.6034 12.6393 14.5987C12.8055 14.5784 12.9615 14.5081 13.0867 14.3969C13.2118 14.2858 13.3002 14.1392 13.34 13.9767C13.34 13.9767 15.8933 3.69467 15.9787 2.31733C15.9873 2.184 15.9987 2.096 16 2.00333C16.0041 1.89618 15.9936 1.78896 15.9687 1.68467Z" fill="white"/>
<defs>
<clipPath id="clip0_4_19">
<rect width="16" height="16" fill="white"/>
</clipPath>
</defs>
</svg>
