<svg width="16" height="16" viewBox="0 0 16 16" fill="none" xmlns="http://www.w3.org/2000/svg">
<path d="M15.8667 4.8C15.8667 4.8 15.7333 3.66667 15.2 3.2C14.6 2.53333 13.9333 2.53333 13.6 2.53333C11.3333 2.4 8 2.4 8 2.4C8 2.4 4.66667 2.4 2.4 2.53333C2.06667 2.6 1.4 2.6 0.8 3.2C0.333333 3.66667 0.133333 4.8 0.133333 4.8C0.133333 4.8 0 6.06667 0 7.4V8.6C0 9.86667 0.133333 11.2 0.133333 11.2C0.133333 11.2 0.266667 12.3333 0.8 12.8C1.4 13.4667 2.2 13.4 2.53333 13.4667C3.8 13.6 8 13.6 8 13.6C8 13.6 11.3333 13.6 13.6 13.4C13.9333 13.3333 14.6 13.3333 15.2 12.7333C15.6667 12.2667 15.8667 11.1333 15.8667 11.1333C15.8667 11.1333 16 9.86667 16 8.53333V7.33333C16 6.06667 15.8667 4.8 15.8667 4.8ZM6.33333 10.0667V5.6L10.6667 7.86667L6.33333 10.0667Z" fill="white"/>
</svg>
