<svg width="24" height="24" viewBox="0 0 24 24" fill="none" xmlns="http://www.w3.org/2000/svg">
<path d="M8.56961 3.76453C8.92545 3.76453 9.25332 3.95752 9.42607 4.26865L10.6243 6.42709C10.7812 6.7097 10.7886 7.05153 10.644 7.34066L9.48965 9.64941C9.48965 9.64941 9.82418 11.3693 11.2242 12.7693C12.6243 14.1693 14.3384 14.4981 14.3384 14.4981L16.6467 13.3439C16.9361 13.1993 17.2781 13.2067 17.5608 13.3639L19.7254 14.5674C20.0363 14.7402 20.229 15.0679 20.229 15.4235V17.9085C20.229 19.174 19.0535 20.088 17.8545 19.6834C15.3918 18.8524 11.5691 17.2703 9.1462 14.8473C6.72328 12.4244 5.14111 8.60169 4.31015 6.13904C3.90557 4.93997 4.81957 3.76453 6.08503 3.76453H8.56961Z" stroke="white" stroke-width="1.5" stroke-linejoin="round"/>
</svg>
