<svg width="24" height="24" viewBox="0 0 24 24" fill="none" xmlns="http://www.w3.org/2000/svg">
<path fill-rule="evenodd" clip-rule="evenodd" d="M6.08504 4.7441C5.43197 4.7441 5.06613 5.31547 5.23834 5.82584C6.06238 8.268 7.58676 11.9025 9.83889 14.1546C12.091 16.4068 15.7255 17.9311 18.1677 18.7552C18.678 18.9274 19.2494 18.5616 19.2494 17.9085V15.4235L17.0849 14.2201L14.7765 15.3743C14.584 15.4705 14.3652 15.5007 14.1539 15.4601L14.3384 14.4981C14.1539 15.4601 14.1542 15.4602 14.1539 15.4601L14.1512 15.4596L14.1478 15.459L14.1392 15.4572L14.1145 15.4521C14.0948 15.4479 14.0687 15.4421 14.0367 15.4345C13.9727 15.4194 13.8847 15.3971 13.777 15.366C13.5621 15.304 13.2659 15.2063 12.9223 15.0599C12.239 14.7687 11.3439 14.2743 10.5316 13.462C9.71937 12.6498 9.22367 11.7535 8.93119 11.0694C8.78412 10.7254 8.68574 10.4287 8.62316 10.2135C8.59181 10.1056 8.56926 10.0176 8.55396 9.95353C8.5463 9.92147 8.54045 9.89534 8.5362 9.87567L8.53101 9.85104L8.52928 9.84246L8.52861 9.83912L8.52833 9.83769C8.52827 9.83738 8.52808 9.83642 9.48966 9.64939L8.52808 9.83642C8.48683 9.62433 8.51685 9.40456 8.61348 9.21131L9.76783 6.90256L8.56964 4.74415L6.08504 4.7441ZM10.5315 9.75616C10.5762 9.89959 10.6415 10.086 10.7327 10.2992C10.9575 10.8251 11.329 11.4888 11.9169 12.0766C12.5046 12.6643 13.1666 13.0343 13.6904 13.2575C13.9025 13.3479 14.0879 13.4125 14.2306 13.4568L16.2086 12.4678C16.2086 12.4678 16.2086 12.4678 16.2086 12.4678C16.7873 12.1784 17.4715 12.1934 18.0369 12.5077L20.2014 13.7112C20.8231 14.0568 21.2086 14.7122 21.2086 15.4235V17.9085C21.2086 19.7863 19.4291 21.2486 17.5413 20.6115C15.0581 19.7737 11.0472 18.1337 8.45353 15.54C5.85982 12.9463 4.21985 8.93534 3.38198 6.45221C2.74502 4.56445 4.20719 2.78491 6.08504 2.78491H8.56962C9.28135 2.78491 9.93706 3.17091 10.2825 3.79312L11.4808 5.95161C11.7945 6.51676 11.8094 7.20042 11.5202 7.77872C11.5202 7.77874 11.5202 7.77869 11.5202 7.77872L10.5315 9.75616Z" fill="white"/>
</svg>
