<svg width="155" height="37" viewBox="0 0 155 37" fill="none" xmlns="http://www.w3.org/2000/svg">
<path d="M55.5964 24.0935C54.4226 24.0935 53.4351 23.8339 52.6338 23.3147C51.8324 22.7843 51.2681 22.0676 50.9408 21.1647L52.9385 19.9966C53.4012 21.2042 54.3098 21.808 55.6641 21.808C56.3187 21.808 56.7984 21.6895 57.1031 21.4525C57.4078 21.2155 57.5602 20.9164 57.5602 20.5552C57.5602 20.1376 57.374 19.816 57.0015 19.5903C56.6291 19.3532 55.9632 19.0993 55.0039 18.8284C54.4734 18.6704 54.022 18.5124 53.6495 18.3544C53.2884 18.1964 52.9216 17.9876 52.5491 17.728C52.188 17.4572 51.9114 17.1186 51.7196 16.7123C51.5277 16.306 51.4318 15.8319 51.4318 15.2902C51.4318 14.218 51.8099 13.3659 52.566 12.7339C53.3335 12.0906 54.2533 11.7689 55.3255 11.7689C56.2849 11.7689 57.1257 12.0059 57.848 12.4799C58.5816 12.9427 59.1516 13.5916 59.5579 14.4268L57.5941 15.5611C57.12 14.5453 56.3639 14.0374 55.3255 14.0374C54.8402 14.0374 54.4565 14.1503 54.1743 14.376C53.9035 14.5905 53.768 14.8726 53.768 15.2225C53.768 15.5949 53.9204 15.8997 54.2251 16.1367C54.5411 16.3624 55.1393 16.6107 56.0196 16.8816C56.3808 16.9944 56.6517 17.0847 56.8322 17.1524C57.0241 17.2089 57.278 17.3048 57.5941 17.4402C57.9214 17.5644 58.1697 17.6829 58.3389 17.7957C58.5195 17.9086 58.7227 18.061 58.9484 18.2528C59.1741 18.4447 59.3434 18.6422 59.4563 18.8454C59.5804 19.0485 59.682 19.2968 59.761 19.5903C59.8513 19.8724 59.8964 20.1828 59.8964 20.5214C59.8964 21.6161 59.4958 22.4852 58.6945 23.1285C57.9044 23.7718 56.8717 24.0935 55.5964 24.0935ZM63.3954 20.5214C63.6888 21.5823 64.4845 22.1127 65.7824 22.1127C66.6176 22.1127 67.2496 21.8306 67.6785 21.2663L69.4392 22.282C68.604 23.4896 67.3738 24.0935 65.7486 24.0935C64.3491 24.0935 63.2261 23.6702 62.3796 22.8238C61.5332 21.9773 61.1099 20.9107 61.1099 19.6241C61.1099 18.3488 61.5275 17.2879 62.3627 16.4414C63.1979 15.5836 64.2701 15.1548 65.5793 15.1548C66.8208 15.1548 67.8422 15.5836 68.6435 16.4414C69.4561 17.2991 69.8624 18.3601 69.8624 19.6241C69.8624 19.9063 69.8342 20.2054 69.7778 20.5214H63.3954ZM63.3615 18.8284H67.6785C67.5544 18.2528 67.2948 17.824 66.8998 17.5418C66.516 17.2596 66.0759 17.1186 65.5793 17.1186C64.9924 17.1186 64.5071 17.2709 64.1234 17.5757C63.7396 17.8691 63.4857 18.2867 63.3615 18.8284ZM71.387 23.8564V11.498H73.5709V23.8564H71.387ZM76.6532 14.376C76.292 14.376 75.976 14.2462 75.7051 13.9866C75.4456 13.7158 75.3158 13.3998 75.3158 13.0386C75.3158 12.6774 75.4456 12.3614 75.7051 12.0906C75.976 11.8197 76.292 11.6843 76.6532 11.6843C77.0256 11.6843 77.3416 11.8197 77.6012 12.0906C77.8721 12.3614 78.0075 12.6774 78.0075 13.0386C78.0075 13.3998 77.8721 13.7158 77.6012 13.9866C77.3416 14.2462 77.0256 14.376 76.6532 14.376ZM75.5697 23.8564V15.3918H77.7536V23.8564H75.5697ZM84.4588 15.1548C85.3843 15.1548 86.1461 15.4651 86.7443 16.0859C87.3537 16.7066 87.6584 17.5644 87.6584 18.6591V23.8564H85.4746V18.93C85.4746 18.3657 85.3222 17.9368 85.0175 17.6434C84.7127 17.3386 84.3064 17.1863 83.7986 17.1863C83.2342 17.1863 82.7828 17.3612 82.4442 17.7111C82.1056 18.061 81.9363 18.5858 81.9363 19.2855V23.8564H79.7524V15.3918H81.9363V16.3398C82.4668 15.5498 83.3076 15.1548 84.4588 15.1548ZM101.695 12.0059V14.2406H98.4957V23.8564H96.1595V14.2406H92.9768V12.0059H101.695ZM108.572 22.8068C107.703 23.6646 106.642 24.0935 105.39 24.0935C104.137 24.0935 103.076 23.6646 102.207 22.8068C101.349 21.9378 100.92 20.8769 100.92 19.6241C100.92 18.3713 101.349 17.3161 102.207 16.4583C103.076 15.5893 104.137 15.1548 105.39 15.1548C106.642 15.1548 107.703 15.5893 108.572 16.4583C109.441 17.3161 109.876 18.3713 109.876 19.6241C109.876 20.8769 109.441 21.9378 108.572 22.8068ZM103.748 21.3001C104.188 21.7403 104.735 21.9604 105.39 21.9604C106.044 21.9604 106.592 21.7403 107.032 21.3001C107.472 20.86 107.692 20.3013 107.692 19.6241C107.692 18.9469 107.472 18.3883 107.032 17.9481C106.592 17.5079 106.044 17.2879 105.39 17.2879C104.735 17.2879 104.188 17.5079 103.748 17.9481C103.319 18.3883 103.104 18.9469 103.104 19.6241C103.104 20.3013 103.319 20.86 103.748 21.3001ZM116.999 15.3918H119.183V23.8564H116.999V22.9084C116.469 23.6984 115.628 24.0935 114.477 24.0935C113.551 24.0935 112.784 23.7831 112.174 23.1623C111.576 22.5416 111.277 21.6838 111.277 20.5891V15.3918H113.461V20.3182C113.461 20.8825 113.613 21.317 113.918 21.6218C114.223 21.9152 114.629 22.0619 115.137 22.0619C115.701 22.0619 116.153 21.887 116.491 21.5371C116.83 21.1873 116.999 20.6624 116.999 19.9627V15.3918ZM123.367 16.8477C123.57 16.306 123.903 15.8997 124.366 15.6288C124.84 15.3579 125.365 15.2225 125.94 15.2225V17.6603C125.274 17.5813 124.676 17.7167 124.146 18.0666C123.627 18.4165 123.367 18.9977 123.367 19.8103V23.8564H121.183V15.3918H123.367V16.8477ZM131.551 12.0059H133.888V23.8564H131.551V12.0059ZM140.686 15.1548C141.612 15.1548 142.373 15.4651 142.971 16.0859C143.581 16.7066 143.886 17.5644 143.886 18.6591V23.8564H141.702V18.93C141.702 18.3657 141.549 17.9368 141.245 17.6434C140.94 17.3386 140.534 17.1863 140.026 17.1863C139.461 17.1863 139.01 17.3612 138.671 17.7111C138.333 18.061 138.164 18.5858 138.164 19.2855V23.8564H135.98V15.3918H138.164V16.3398C138.694 15.5498 139.535 15.1548 140.686 15.1548ZM149.78 24.0935C148.504 24.0935 147.438 23.6646 146.58 22.8068C145.733 21.9491 145.31 20.8882 145.31 19.6241C145.31 18.3601 145.733 17.2991 146.58 16.4414C147.438 15.5836 148.504 15.1548 149.78 15.1548C150.603 15.1548 151.354 15.3523 152.031 15.7473C152.708 16.1423 153.222 16.6728 153.572 17.3386L151.693 18.4391C151.523 18.0892 151.264 17.8127 150.914 17.6095C150.575 17.4064 150.192 17.3048 149.763 17.3048C149.108 17.3048 148.566 17.5249 148.137 17.965C147.709 18.3939 147.494 18.9469 147.494 19.6241C147.494 20.29 147.709 20.843 148.137 21.2832C148.566 21.7121 149.108 21.9265 149.763 21.9265C150.203 21.9265 150.592 21.8306 150.931 21.6387C151.281 21.4355 151.54 21.159 151.71 20.8092L153.606 21.8926C153.233 22.5585 152.708 23.0946 152.031 23.5009C151.354 23.8959 150.603 24.0935 149.78 24.0935Z" fill="#DBFFFB"/>
<g clip-path="url(#clip0_77_31636)">
<g clip-path="url(#clip1_77_31636)">
<path d="M10.3788 8.17303L9.69848 7.62509L8.98953 7.09327L8.57453 7.28682L8.23694 7.68202L7.59717 7.8187L7.44155 7.9721L7.32639 8.07632L7.15345 8.25359L7.36097 8.47922L7.37825 8.78541L7.55113 8.83376L7.31814 8.54361L7.15345 8.7693L5.98084 7.72179V7.96353L6.13646 8.17303L6.46499 8.26972C6.6552 8.20525 6.43041 8.43088 6.43041 8.43088C6.43041 8.43088 5.83717 8.65649 5.83984 8.60815C5.84251 8.55979 5.56584 8.7693 5.56584 8.7693V9.0755L5.39292 9.22054L5.51396 9.46228L5.68688 9.73625L6.05 9.86517L5.99814 10.123L5.28919 10.5259H4.77043L4.39001 10.8749L4.80501 10.6871L5.37562 10.6548L6.37853 10.2741L6.74165 10.1069L6.82811 9.65566L7.24311 9.60732V9.86517L7.91746 9.94574L8.36705 10.1714L8.73015 10.671L8.97225 11.5251L9.02411 12.7338L9.12787 13.459L8.62641 14.2647L8.34976 15.3284L8.57453 16.0214L8.88579 16.3759L9.02411 17.1011L9.21433 17.7135L9.16245 18.0036L9.50828 18.3904L9.36995 17.8908L9.21433 17.1494L9.17973 16.6499L9.43911 16.8433V17.1978L9.71576 17.649L10.1481 18.5515L10.0616 18.9222L10.3788 19.2445H10.6149L10.8743 19.5023L11.2547 19.6635L11.6005 19.5829L11.9636 19.9697H12.4305L12.7418 20.4854L13.2086 20.9044L13.5544 21.0817L13.7965 20.8561L13.9694 20.9205L14.0905 21.1485L13.9694 21.8552L13.5717 22.3226L13.6409 22.6932L13.4507 22.9189L13.5372 23.2895H13.7101L14.0905 24.1436L14.5055 24.6755L15.2663 25.0945L15.3873 25.8358L15.543 27.7536L15.4219 28.4304L15.543 28.9622L15.785 29.5585V30.3482L16.0963 30.9283L16.615 31.3796H17.3758L16.7361 30.9928L16.6496 30.5899L16.909 30.042L16.6323 29.6713L16.8744 29.3651L16.7879 28.8817L17.0992 28.785L17.1856 28.4143L17.6525 28.2693L17.7908 27.9147L17.4277 27.5279L18.0329 27.6569L18.3615 27.0445L18.7246 26.4965V26.1581L19.0012 25.8197L19.3298 25.6746L19.7102 25.5941L19.8485 25.1912L20.0387 24.6916V24.2081L20.4883 23.6924L20.5747 23.2251L20.4364 22.9189L20.0906 22.9511L19.6583 22.6771L19.0531 22.661L18.7419 22.3548L18.1021 22.2581L18.2404 22.0003L18.0329 21.5329L17.5315 21.2912H17.0992L16.6496 20.8561L16.2865 20.5982L15.9753 20.6949L15.7332 20.566L15.4219 20.6466L15.1971 20.3726L14.9896 20.5499L14.6092 20.5176L14.2461 20.8561L13.9522 20.7432L13.5544 20.8238L13.2432 20.6949L13.1049 20.3403L13.2086 19.8247L12.8801 19.7924L12.4824 19.6474L12.6726 19.3089L12.8455 18.9383L12.7418 18.7288L12.4824 18.8577L12.3095 19.0189L11.9809 19.2445L11.4622 19.18L11.2374 18.5193L11.393 18.0197L11.6524 17.5201L11.9291 17.3751C11.9291 17.3751 12.3095 17.2623 12.3095 17.3106C12.3095 17.3589 12.5861 17.4718 12.5861 17.4718L12.7936 17.2784L13.1049 17.3106L13.3815 17.3589L13.6236 17.3428L13.7792 17.5846L13.7101 17.8424L13.8484 18.1164L13.9176 18.2614L14.1251 17.9714L13.9694 17.3589L14.5401 16.7143L14.9896 16.5693L15.3873 15.8441L15.7677 15.5701L16.1136 15.4412L16.2173 15.1672L16.7015 14.9738L16.8398 15.2156L17.3067 15.0705L17.6006 14.8127L17.1856 14.5387V14.1519L17.0819 13.9586L17.7908 13.9102L18.3788 13.8941C18.2453 14.0298 18.1239 14.1753 18.0156 14.3292C18.0156 14.3775 18.1021 14.4581 18.1021 14.4581L18.7592 14.6676L18.69 14.2647H18.3615L18.6035 13.878L18.5862 13.2978L18.1712 12.8466L18.0329 12.2019L17.9292 11.9924L17.566 12.3631L17.2375 12.2503L17.2548 11.7507L16.8744 11.3478L16.4248 11.2511L16.2692 11.7991L16.0444 12.0569L16.1655 12.347L16.0617 12.7982L15.6294 12.9271L15.5775 13.2656L15.3355 13.5234L15.1107 13.3139L15.2836 12.7176L14.9032 12.6048L14.3499 12.1858L14.1251 12.2019L14.0905 11.4606L14.5747 10.8749L15.4046 10.6226L15.7332 10.1875L15.9753 10.2741L16.3557 10.1875L16.5545 9.61537L16.2304 9.4635C16.2304 9.4635 16.1481 9.73625 16.0963 9.73625L15.7591 9.96992L15.7159 9.76847L15.8283 9.54285L15.6986 9.4381L15.5343 9.67984L15.4911 9.24472L15.5084 8.83377L15.37 8.61621L15.0674 8.80959L15.0329 9.08356L15.1366 9.26888L15.1107 9.5348L14.7735 9.7443L14.687 9.46228L14.4882 9.44616L14.4709 9.57509L14.1337 9.49451L13.7879 9.32529L13.6841 9.13191L13.4507 9.14802L13.3383 9.51062L13.1827 9.31724L13.0444 9.20443L12.5256 9.10774L12.6726 9.00298L12.638 8.81766L12.4392 8.70485L11.9896 8.35836L11.5486 8.29389L11.0991 7.9474L10.5803 7.99576L10.3788 8.17303Z" fill="#1C6C85"/>
<path d="M16.4833 8.34138L16.0441 8.50299L15.9089 8.88274V9.11707L16.1961 9.18172L16.6775 9.38371C16.6775 9.38371 16.9985 9.35139 17.0238 9.34331C17.0492 9.33523 17.2012 9.60996 17.2012 9.60996L17.4715 10.022V10.2402L17.1336 10.426L17.0745 10.62H16.7704L16.5508 10.7331L16.6269 10.8947L16.9563 10.7492L17.0914 10.9432L17.3025 11.2825L17.7249 11.5492H17.8262L17.6235 11.1452L17.7756 11.1613L17.9191 11.3957L18.105 11.2421V11.024L17.8347 10.6765L17.9782 10.5149L18.1725 10.7088L18.2654 10.9189L18.5019 10.7331L18.6793 10.4422L18.4766 10.3937L18.1894 10.0544L18.1218 9.94528L18.1472 9.65843L17.6826 9.23827L17.463 8.91507L17.3532 8.59186L17.0323 8.54339L16.8971 8.44643L16.5508 8.55954L16.4833 8.90699L16.3481 8.84235L16.4326 8.51915L16.6775 8.34138H16.4833Z" fill="#1C6C85"/>
<path d="M12.388 7.0296L12.4227 7.3418L12.1627 7.38183L11.972 7.62198L12.0414 7.92619H12.2927L12.83 7.68603L12.7607 7.82212L12.6134 7.92619L12.83 8.05426L12.6047 8.1103L12.6394 8.19835L13.1421 8.37446L13.0987 8.47053L12.7954 8.32644L12.557 8.39048V8.51857L12.7174 8.60662L12.8387 8.72669L12.804 8.83877L12.8734 8.91882L13.1421 8.97486H13.5667L13.7487 8.8788L13.9221 9.07092H14.1734L14.3641 8.94284L14.4508 8.79073L14.2341 8.61462C14.2341 8.61462 14.1301 8.48655 14.1561 8.48655C14.1926 8.47764 14.2275 8.46418 14.2601 8.44652L14.2861 8.01424L14.0781 7.84612L13.9654 7.97421V8.17434L13.8181 8.08628L13.7834 7.83012L13.6447 7.81412L13.3414 7.76608L13.3674 7.59796L13.2634 7.43787L13.0294 7.20571L12.856 7.26175L12.7174 7.0296H12.388Z" fill="#1C6C85"/>
<path d="M13.8198 6.39907L13.4849 6.30027L13.2702 6.42989L12.9103 6.47305L12.847 6.62117L13.0808 6.74463L13.3333 6.70734L13.466 6.89275L13.3333 6.92358V7.02027L13.5671 7.14583L13.6808 7.09035L13.7376 7.24463H13.5923L13.586 7.33711L13.7187 7.42358L13.9271 7.46674L14.1419 7.36177L14.4136 7.46674L14.5967 7.29396L14.5588 7.12117L14.384 7.04704L14.4325 6.84959L14.2303 6.88358L14.2366 7.02027L14.224 7.18283L13.9777 7.1705L13.9081 6.88358L13.7218 6.7323L13.5671 6.80027L13.365 6.60268L13.5103 6.49155L13.6302 6.63365L13.7629 6.56779L13.8198 6.39907Z" fill="#1C6C85"/>
<path d="M16.8516 6.19768L17.591 6.15444L17.9317 6.3135L18.3111 6.23397L18.7097 6.3135L19.5391 6.55097L19.6998 6.64942L19.5133 6.73021L19.2562 6.75366L19.134 6.8637L18.7933 6.95058L18.5618 7.09536H17.9253V7.18803L18.1439 7.25753L18.086 7.37335L17.7967 7.44285L17.6553 7.54132H17.4881L17.636 7.68031L17.5524 7.78455L17.2138 7.69769L16.3758 7.44285L16.1508 7.51235L16.1894 7.68031L16.3887 7.78455L16.7616 7.86564L17.0574 7.81931L17.3017 8.0085L17.2631 8.13784L17.0831 8.19576L16.6652 8.10309L16.2215 7.97568L16.0608 8.05097C15.9898 7.97301 15.9233 7.89182 15.8615 7.80773C15.8615 7.79035 15.9387 7.50078 15.9387 7.50078L15.7265 7.44285L15.6172 7.23436L15.8808 7.1751L16.0094 7.33861L16.228 7.38494L16.4916 7.3502L16.7295 7.33281L16.6845 7.23436L16.8709 7.1751L16.9866 7.32124L17.1538 7.44285H17.3081L17.3145 7.29807L17.1795 7.32124L17.0766 7.23436L17.1281 7.1359L16.8452 7.07221L16.9738 6.939L17.2567 7.02393L17.3209 6.95637L17.1666 6.73021L17.2631 6.67259L17.4495 6.77104L17.5331 6.89556L17.6585 6.95058V6.84054L17.9382 6.78841L18.086 6.70155L18.0796 6.56834L17.951 6.57412L17.7774 6.68416L17.4817 6.62625L17.3209 6.55097L17.1859 6.57412L17.0123 6.55675L16.9609 6.41197V6.28455L16.8323 6.244L16.8516 6.19768Z" fill="#1C6C85"/>
<path d="M14.9169 7.90419L14.8147 8.10901H14.6444L14.5966 8.29523L14.7568 8.42558C14.7568 8.42558 14.8079 8.66145 14.8147 8.63042C14.8215 8.59939 15.0395 8.51869 15.0395 8.51869C15.0395 8.51869 15.1894 8.438 15.1894 8.41937C15.1894 8.40075 15.1281 8.14626 15.1281 8.14626L15.3257 8.0904L15.2848 7.90419H14.9169Z" fill="#1C6C85"/>
<path d="M15.3635 8.15451L15.3256 8.34436L15.4325 8.48741H15.552L15.8326 8.38492L16.0547 8.18649L15.6902 8.04999L15.3635 8.15451Z" fill="#1C6C85"/>
<path d="M14.7439 9.07071L14.4507 9.21979L14.8881 9.36233V9.21652L14.7439 9.07071Z" fill="#1C6C85"/>
<path d="M15.2387 7.25531V7.48565L15.1798 7.67851L15.3286 7.75844L15.4372 7.65496L15.4714 7.41981L15.4528 7.25531L15.3566 7.17521L15.2387 7.25531Z" fill="#1C6C85"/>
<path d="M15.1798 6.39824L15.2835 6.48286L15.3137 6.56748L15.1798 6.54958V6.62541L15.5167 6.66984L15.616 6.86137L15.7175 6.8835L15.763 6.64087L15.4217 6.34486L15.2057 6.30027L15.1798 6.39824Z" fill="#1C6C85"/>
<path d="M15.7991 6.70397L15.8803 6.82062L15.763 6.88866L15.8803 7.02961C15.9888 7.00811 16.0958 6.97847 16.2004 6.94092C16.1869 6.92754 16.0877 6.73276 16.0877 6.73276L15.9118 6.59218L15.7991 6.70397Z" fill="#1C6C85"/>
<path d="M16.6085 6.15444L16.8735 6.53947L17.0754 6.68602L17.046 6.82002L16.945 6.932L16.7095 7.00833L16.5455 7.02929L16.2889 6.75272L16.5201 6.71539L16.5581 6.61076L16.3813 6.63156L16.2005 6.59194V6.37212L16.4403 6.36799L16.4108 6.22557L16.6085 6.15444Z" fill="#1C6C85"/>
<path d="M15.6265 7.6124L15.4714 7.69725L15.549 7.82971C15.549 7.82971 15.7258 7.92905 15.732 7.89801C15.7382 7.86695 15.7631 7.69725 15.7631 7.69725L15.6265 7.6124Z" fill="#1C6C85"/>
<path d="M14.3288 7.90422L14.1591 7.79389L14.3823 7.75841L14.5966 7.81388L14.3288 7.90422Z" fill="#1C6C85"/>
<path d="M14.1591 6.43854L14.2225 6.59186C14.2969 6.59062 14.3713 6.58385 14.445 6.57158C14.4469 6.5603 14.5966 6.24914 14.5966 6.24914L14.445 6.15444L14.2225 6.24238L14.1591 6.43854Z" fill="#1C6C85"/>
<path d="M15.779 10.3829C15.7505 10.4 15.4714 10.8003 15.4714 10.8003L15.5664 10.8408V10.9661L15.722 10.8746L15.8511 10.7546L15.9271 10.8175L16.0239 10.9204L16.2005 10.9032L16.0524 10.6745V10.5716L15.779 10.3829Z" fill="#1C6C85"/>
<path d="M16.9297 10.067L16.9539 9.96983L17.1322 9.94553L17.2213 9.99195L17.1443 10.0515L17.0148 10.0913L16.9297 10.067Z" fill="#1C6C85"/>
<path d="M19.3498 7.27928L19.0488 7.38049L18.6364 7.40427L18.414 7.46982L18.4728 7.58292L18.6364 7.72575H18.8818L19.0029 7.7971H18.7739L18.6103 7.82972L18.3877 7.77129L18.4728 7.89135L18.6364 7.96371L18.8262 7.96951L18.7804 8.01142H18.5382L18.499 8.10466L18.5972 8.13641L18.6953 8.29708H18.8688L19.1011 8.23154L19.3039 8.30796L19.5069 8.46369L19.5592 8.76719L19.6836 8.83854L19.7751 9.11637V9.31474L19.6705 9.40986L19.6575 9.57662L19.7751 9.60635L19.8603 9.43379L19.9781 9.60635L20.0173 9.7908L20.0696 10.0111L19.9322 10.2173L19.7359 10.4277L19.5919 10.7609L19.6181 11.0941L19.664 11.4751L19.7359 11.7726L19.9518 12.0404H20.1679L20.2661 12.2189L20.4951 12.2785V12.1654L20.7437 11.8083L20.9924 11.4097L21.1168 11.1775L21.4309 11.118L21.7582 11.0584L22.02 10.7787L22.2032 10.6359H22.5173L22.9034 10.5347L23.27 10.267L22.9951 10.2173L22.7136 10.124L22.8445 10.0111L23.126 9.9535L23.1914 10.1181L23.4793 10.1717V9.98728L23.4074 9.80269L23.0933 9.68958L22.9297 9.45757L23.1391 9.52297L23.1718 9.35041L23.4074 9.45757L23.6691 9.4873L23.7346 9.38217L23.5186 9.28501L23.6691 9.15407L23.8131 8.99326L23.7804 8.85057L23.5906 8.70165L23.7216 8.62436L24.0292 8.73747V8.55882L23.9571 8.56491L23.8786 8.59464L23.7543 8.51126L23.8 8.41599L23.9179 8.45775V8.37828L23.7804 8.29708L23.7935 8.10466L23.9571 7.96951H24.1011L24.0357 7.77129L24.3237 7.68994L24.461 7.57683L24.6574 7.52535L24.5396 7.4282L24.1732 7.41022L24.1076 7.52535L23.8196 7.41616L23.6889 7.61265L23.4336 7.7317L23.558 7.4936L23.7346 7.38644L23.5841 7.24825L23.499 7.27928L23.4663 7.41022L23.2308 7.45198L23.0933 7.52535L23.0834 7.45488L23.2438 7.36556L23.2666 7.26739L22.9656 7.34178L22.6417 7.38049L22.55 7.43704L22.5304 7.36556L22.7202 7.28537L22.6908 7.11861L23.0638 7.21083L23.5645 7.14848L23.3944 7.08004L23.414 6.94301L23.247 6.85673L22.4944 6.79104L22.3308 6.73782L22.2359 6.80916L22.0887 6.79104L21.9938 6.827L22.0756 6.96389L21.7059 6.86572V6.75261L21.5029 6.79104L21.4048 6.91632L21.5945 6.97288L21.6437 7.02943L21.4408 7.05321L21.4341 7.17516L21.3131 7.13645L21.1887 6.98477L21.0481 6.96983L20.9237 6.86267L20.7863 6.92822L20.8714 7.09787L20.6391 7.01449L20.4951 7.07409L20.3969 6.85673L19.9322 6.84484L19.6672 6.89544L19.6214 7.0651L19.4184 7.05321L19.2352 7.0651L19.0357 7.14239L19.088 7.24825L19.3498 7.27928Z" fill="#1C6C85"/>
<path d="M24.6207 13.3743L24.8812 13.299L24.9491 13.4498L24.8926 13.808L24.7453 13.9966L24.5018 14.028L24.3659 13.9588L24.5358 13.6634L24.4111 13.5379L24.5075 13.4498L24.6207 13.5314V13.3743Z" fill="#1C6C85"/>
<path d="M36.0304 6.3461L36.151 6.45024L36.1863 6.70435L36.2668 6.7377L36.3471 6.62929L36.6136 6.5419V6.39604L36.3622 6.30027H36.0505L36.0304 6.3461Z" fill="#1C6C85"/>
<path d="M35.3557 6.1753L35.0822 6.32938L35.0097 6.53355L35.0994 6.59186L35.7485 6.57101L36.0303 6.5168L35.962 6.21275L35.8104 6.1753L35.6289 6.3003L35.5862 6.15444L35.3557 6.1753Z" fill="#1C6C85"/>
<path d="M40.6995 5.75617L40.8213 5.93412L40.5329 5.89132L40.4048 6.01937V6.26819L40.7765 6.44614L40.8983 6.23977L41.0585 6.10115V5.83449L41.2507 6.01937L41.5136 5.89843L41.9431 5.88422L42.1545 5.6354L41.9623 5.57129L41.7571 5.67092L41.411 5.64961L41.1547 5.65671L40.9623 5.74924L40.7957 5.71355L40.6995 5.75617Z" fill="#1C6C85"/>
<path d="M41.1339 6.59188L41.2741 6.44607L41.5714 6.50019V6.56274L41.1339 6.59188Z" fill="#1C6C85"/>
<path d="M47.1854 7.51592L47.0604 7.43943L47.276 7.39918L47.3062 7.10531L47.0992 7.00869H46.7068L46.543 7.03285L46.405 6.93221L46.0687 6.90402L46.3791 6.63754L46.2541 6.4894L45.948 6.54173L45.6504 6.19151L45.4737 6.15448L45.2883 6.26798L45.3702 6.38876L45.5038 6.45317L45.547 6.62223L45.4823 6.65042L45.1891 6.59809L45.0339 6.48939L45.008 6.57393L44.6113 6.69068L44.4173 6.78326L44.3741 6.90402L44.0637 6.75478L44.0723 6.56185L43.7748 6.51757L43.542 6.56588L43.2661 6.75478L43.21 6.86377L42.8478 6.77923L42.5675 6.78326L42.6236 6.6786L42.4554 6.61017L42.2786 6.65847L42.2959 6.83963L42.2485 6.96844L42.1278 6.90402L42.0803 6.70276L41.6448 6.7269L41.3603 6.81949L41.2999 7.00064L41.4249 7.00467L41.4422 7.15361L41.4335 7.30256H41.1964L40.9938 7.28243L40.9895 7.37502L41.0584 7.44346L40.9291 7.42332L40.7868 7.44748L40.6273 7.30659L40.3938 8.30895L40.5059 8.45387L40.4671 8.53437L40.2429 8.48204L39.7133 7.85005L39.5495 7.84198L39.5969 7.7816L39.709 7.70109L39.7996 7.56422L39.6314 7.49176L39.377 7.54813L39.1097 7.49579L39.0666 7.60448L39.0148 7.71317L39.183 7.77355L39.1442 7.79771L39.1785 7.43943L38.8637 7.54006L38.8206 7.4354L38.6395 7.45553L38.3291 7.55214L38.1653 7.49176L38.0359 7.53605L37.8203 7.55214L37.7858 7.66486L37.8074 7.72927L37.6737 7.7816L37.5012 7.89432L37.4193 7.99496L37.3029 8.03522L37.4452 7.77355L37.7729 7.45553L37.9885 7.30256L37.9626 7.07713L37.7944 6.99663L37.9799 6.96039L37.9281 6.81949L37.6177 6.72288L37.3978 6.80742L37.0614 6.89598L36.9192 6.92013L36.7769 6.89196L36.7208 6.67055L36.6044 6.64236L36.5354 6.81949L36.4794 6.99259L36.6001 7.09726L36.7165 7.05701L36.682 7.14556H36.4707L36.2896 7.20594L36.4664 7.35086L36.1689 7.39918L36.0611 7.32672L35.6084 7.63668L35.4014 7.69305L35.3281 7.83797L35.2074 7.92652L35.2591 8.09157L35.4101 8.2043L35.2936 8.40556L35.2419 8.22442L35.1125 8.30895L34.8193 8.39348L34.7029 8.48205L34.7633 8.63101L34.8603 8.75378L35.1902 8.82019L35.3066 9.0557L35.3001 9.18854L35.4424 9.36365L35.3518 9.42403L35.1707 9.23684L35.132 8.95305L34.8344 8.8504L34.5693 8.72359L34.4528 8.77189L34.5305 8.947L34.33 8.8987L34.1618 8.7417L34.1036 8.79L34.1553 8.86246L34.0583 9.01343L34.0389 9.18251L34.2071 9.34554L34.1941 9.48443L34.2588 9.56292L34.2653 9.67765L34.3494 9.75011L34.5822 9.65349L34.815 9.78634L34.8862 9.95541L35.1707 10.0701L35.0608 10.1064L34.8344 10.0279L34.7116 9.81049L34.5693 9.73803L34.4464 9.87088L34.5175 10.0701L34.4464 10.2311L34.3494 10.4023L33.9419 10.4204L34.0519 10.3177L34.1424 10.3358L34.2653 10.2311L34.3235 9.97353V9.82257L34.1165 9.61122L34.0195 9.26705L33.8514 9.18251L33.8966 8.90473L33.6961 8.83227L33.4698 8.81416L33.4374 9.04965L33.4892 9.23081L33.3081 9.29119L33.2757 9.38781L33.3986 9.47235L33.3598 9.58707L33.3857 9.73199L33.528 9.72595L33.6897 9.87691L33.7479 10.0762L33.4698 9.89503L33.2693 9.90107L33.0494 9.77426L32.9459 9.81049L32.7066 9.82257L32.2668 9.67765L31.9369 9.4663L31.9757 9.14627L32.1569 8.73567L32.5384 8.41563L32.8618 8.21033L33.0235 8.1439L33.0429 7.89633L32.8424 7.92652L32.7971 8.05333L32.3444 8.22241L32.0275 8.42167L31.9369 8.57263L31.827 8.5847L31.8399 8.65716L31.8917 8.71151L31.7947 8.8987L31.6847 9.14024L31.7106 9.35157L31.5166 9.418L31.5877 9.60519L31.7947 9.61727L31.8658 9.7018L32.131 9.70784L32.6807 9.88899L32.7454 10.0883L32.6031 10.0762L32.3638 10.1124L32.0986 10.2754L31.9628 10.3238L32.0728 10.0339L31.9499 10.0883L31.8593 10.2311L31.5166 10.3539L31.3937 10.5592V10.686L31.1802 10.6498L31.0509 10.5532L31.1479 10.4385L31.2385 10.4928L31.1802 10.3238L30.9668 10.3117L30.831 10.2996L30.8633 10.4566L30.9927 10.6559L31.025 10.7887L31.0573 10.9095L30.8181 10.7887H30.7534L30.6952 10.8974L30.5529 11.0061L30.6757 11.157L30.4817 11.2416L30.2942 11.1389L30.1648 11.157L30.3588 11.308L30.43 11.3986L30.2295 11.4529L29.9708 11.302L29.919 11.0544L29.7186 10.9336L29.5181 10.7404L29.6991 10.7766L29.9255 10.8672L30.3524 10.9638L30.5917 10.8612L30.624 10.674L30.4365 10.4868L29.932 10.2694L29.6539 10.2936L29.4986 10.1547L29.324 10.2311L28.9101 9.96748L28.5479 10.0641L28.4703 10.2311L28.3668 10.0701L28.2375 10.0943L28.1081 10.2694L27.8559 10.3358L27.6748 10.5411L27.5061 10.8793L27.2997 11.308L26.5236 11.8877L26.433 12.3224L26.5365 12.7693L26.7952 12.8538L27.222 12.5157L27.2997 12.8538L27.5061 13.2282L27.2673 13.3912L27.125 12.8417L26.9695 12.9504L26.9957 13.1135L26.8211 13.2101L26.8599 13.4335L26.9695 13.6026L26.6917 13.6871L26.433 13.8803L26.336 14.1339L25.8186 14.5083L25.6116 14.3634L25.9803 14.1702L26.0061 13.9166L25.7927 13.7052L25.4305 13.2342L25.5728 12.9987L25.3658 12.8236L25.437 12.6666L25.1718 12.7391L25.0231 12.9082V13.1738L25.1589 13.4154L25.3529 13.4516L25.3141 13.7354L25.2042 13.8622L25.0813 14.0555L25.3594 14.1158L25.133 14.2185L25.1653 14.3091L25.4176 14.2849L25.5275 14.4238L25.5728 14.5446L25.5017 14.5989L25.2688 14.5566L25.2106 14.6774L25.3141 14.7499L25.5275 14.8465L25.7216 15.1061V15.245L25.5793 15.559H24.9584L24.7514 15.4865L24.538 15.5892V15.9092L24.4863 16.2655V16.5614L24.5574 16.658L24.7708 16.6217L24.9649 16.7546L24.9067 16.972L24.732 17.1411L24.4086 17.3464L24.3569 17.6845V17.8596L24.0917 18.0106L23.8783 18.0528L23.7878 18.228L23.6196 18.3668V18.5238L23.4514 18.6506L23.3803 18.8499L23.2315 19.0009L23.2703 19.1458L23.3932 19.2062L23.3221 19.3209L23.4062 19.5322L23.3544 19.6892L23.3415 19.8764L23.1992 19.973L23.2768 20.118L23.3027 20.3595L23.4773 20.438L23.7878 20.8607L23.9042 21.1324H24.0853L24.6156 21.543H24.7967L25.1072 21.38L25.3526 21.4102L25.6116 21.4766L25.8703 21.3437L26.433 21.2109L26.64 21.386L26.7305 21.5007L27.1121 21.4766L27.2932 21.5853L27.3449 21.7846L27.1768 22.2797L27.2027 22.485L27.5061 22.7084L27.6295 22.9439L27.7589 23.0526L27.8365 23.3304L27.7783 23.4934L27.9335 23.7591L27.8882 23.9282L27.6424 24.2603L27.5778 24.6286L27.5972 24.8762L27.7653 25.0271L27.7977 25.1962L27.8882 25.323L27.9788 25.7759L28.0629 26.0476V26.2469L28.2051 26.3858L28.3021 26.7179L28.4509 26.8386V26.9775L28.3927 27.056L28.4509 27.201V27.2976L28.7678 27.4425L28.923 27.3459L29.1817 27.3096L29.6539 27.2734L29.9449 27.0621L30.2812 26.7843L30.4494 26.5005L30.6305 26.3616L30.6628 26.0114L31.0121 25.8423L31.122 25.5223L31.038 25.166L31.232 24.8943L31.523 24.6588L31.8205 24.5743L32.0016 24.375L31.9499 24.2663L32.0016 24.0308V23.7047L31.827 23.3847L31.8529 23.119L31.7882 22.9741L31.9175 22.7326L32.1116 22.3884L32.2474 22.3582L32.3509 22.177L33.1205 21.5189L33.3857 21.1566V20.9633L33.5538 20.6856L33.5991 20.4018L33.515 20.3353L33.2369 20.438L33.017 20.444L32.933 20.5286L32.7777 20.5346L32.616 20.6131L32.4479 20.5648L32.3379 20.3836L32.3961 20.281L32.2603 20.1663L31.7947 19.8523L31.6394 19.5021L31.4454 19.3752L31.3419 18.8922L31.0573 18.5963L31.1285 18.5238C31.1285 18.5238 30.831 18.24 30.8116 18.24C30.7922 18.24 30.7469 18.0891 30.7469 18.0891L30.6176 17.9985L30.4753 17.6664L30.5529 17.6L30.6628 17.7932L30.7404 17.9562L30.8439 18.083L30.8504 17.8294L30.8957 17.7449L30.928 17.9744L31.0638 18.0589L31.1996 18.2944L31.3355 18.4031L31.3872 18.5299L31.5748 18.6084L31.7235 19.019L31.7494 19.0914L31.9628 19.1518L32.2926 19.7134L32.2733 19.8764L32.3703 20.0213L32.3767 20.1059L32.4802 20.2266L32.6355 20.2327L32.8165 20.1361L33.2628 20.0032L33.3728 19.8945L33.7414 19.8402L33.8514 19.647L34.1747 19.5745V19.4417L34.3494 19.4175V19.2968L34.4916 19.2424L34.5369 19.0371L34.6404 19.0492V18.9405L34.7568 18.8559V18.6446L34.4852 18.4453L34.2459 18.4272L34.1359 18.0589L33.9807 18.234L33.8837 18.4393C33.7623 18.4668 33.6392 18.487 33.515 18.4997C33.4956 18.4876 33.2305 18.1676 33.2305 18.1676L32.9718 17.8053L32.8424 17.6362L33.0558 17.4973L33.1852 17.5396L33.3404 17.8174C33.3404 17.8174 33.4051 17.9381 33.3986 17.92C33.3922 17.9019 33.5086 17.8596 33.5086 17.8596L33.7867 18.0468L33.9419 18.0166L34.1747 17.926L34.2588 18.0227L34.3041 18.1253C34.3041 18.1253 34.621 18.228 34.6404 18.228C34.6598 18.228 35.1578 18.1857 35.1578 18.1857L35.6235 18.1495L35.714 18.2702L35.8757 18.3427L35.9275 18.4091L36.0439 18.4031V18.4997L36.2832 18.5238L36.1344 18.6627L36.2832 18.7654L36.3608 18.8801L36.5807 18.8439L36.71 18.5963L36.7424 18.7895L36.6906 19.0794L37.1046 19.8764L37.1822 19.973L37.2598 20.2991L37.4021 20.438L37.4473 20.5648V20.6614L37.6284 20.8788L37.7643 20.8305V20.6976L38.0294 20.4803L37.9583 20.3233L38.0294 20.1119L37.9971 19.9187L38.0294 19.5202L38.2235 19.4779L38.3528 19.2847L38.618 18.9828L38.8702 18.7774L38.8314 18.6688L38.9802 18.5178L39.1483 18.6205L39.42 18.5238L39.5752 18.6144V18.7593L39.8662 19.019L40.015 19.1881V19.4477L40.0861 19.5624L40.319 19.4175L40.3513 19.2847L40.4677 19.4296L40.5453 19.7738L40.6812 19.973L40.7135 20.0334L40.6424 20.118L40.7135 20.2629V20.7943L40.8558 20.8365L41.0886 21.1626V21.4041L41.1792 21.6577L41.4249 21.8389L41.5866 21.9355L41.6578 21.8751L41.5284 21.5672L41.5219 21.2954L41.3215 21.0965L41.0822 20.8426L40.9075 20.5165L40.8881 20.2991L40.9334 20.0817L40.8881 19.9127L40.9722 19.7979L41.0433 19.8704L41.0757 20.0032C41.0757 20.0032 41.218 20.0334 41.218 20.0153C41.218 19.9972 41.3861 20.13 41.3861 20.13L41.4249 20.287L41.5608 20.3414L41.6578 20.444V20.6131L41.7418 20.6916L41.9423 20.5406L41.9876 20.3957L42.1816 20.3353L42.3304 20.2327V19.9368L42.2722 19.5866L41.9941 19.3209L41.8712 19.2786L41.7806 19.1216L41.6319 18.9405L41.6513 18.7231L41.7936 18.6446L41.8777 18.4695L42.1234 18.4151L42.1816 18.542L42.201 18.7593L42.1234 18.8741L42.201 19.0371L42.3627 19.0794L42.4468 18.8559L42.3563 18.7593L42.2786 18.5903L42.4015 18.4091L43.016 18.1797L43.2941 17.914L43.5269 17.4611V17.2558L43.6627 17.0686V16.7727L43.4687 16.7667L43.5593 16.5433L43.3846 16.344L43.2488 16.2655C43.2488 16.2655 42.9901 15.9998 42.9772 15.9756C42.9653 15.9017 42.9588 15.827 42.9577 15.7522L43.113 15.553L43.2747 15.5107L43.2941 15.3718L43.0871 15.402L42.9642 15.3537L42.8996 15.4986L42.6408 15.4745L42.5632 15.3658L42.421 15.1967L42.4791 15.1061L42.6085 15.1605L42.6408 15.0518L42.7185 14.9854L42.8284 14.8042L42.9836 14.7559L42.9642 14.8706L42.9254 14.9974L43.0289 15.1182L43.1388 14.9974L43.3523 14.9371L43.5204 14.9672L43.5075 15.088L43.5269 15.2571L43.8438 15.3839V15.4986L43.8762 15.6677L43.915 15.8489L44.012 15.9334L44.2384 15.8428L44.3483 15.6435V15.402L44.0379 15.1242L43.8503 14.9672L43.8309 14.8284L43.9732 14.6835L43.9602 14.5325L43.9926 14.3453L44.0702 14.2789L44.0184 14.2185L44.0767 14.1098L44.1931 14.2185L44.4453 14.1581L44.5876 13.7958L44.6329 13.3912V13.2282L44.7493 12.878L44.4971 12.2258L44.5035 11.9783L44.3548 11.8817L44.2901 11.7065L44.012 11.5193L43.8309 11.5254L43.8697 11.6582L43.7468 11.6884L43.5075 11.5375L43.2941 11.5616L43.4364 11.3623L43.5269 11.1389L43.6239 10.8314L43.708 10.2311L43.9732 10.1124H44.316L44.5035 10.046L44.5553 9.87691H44.7946L44.9627 10.0037L45.2473 9.87691L45.4155 9.75011L45.2085 9.71992V9.47838L45.2279 9.17646C45.2279 9.17646 45.5383 8.83832 45.5383 8.85643C45.5383 8.87454 45.6159 9.12816 45.6159 9.12816L45.81 9.25497L45.8876 9.14627V8.95908L45.9997 8.95305V8.82826L45.8919 8.74372L45.9523 8.60282L46.1765 8.57867L46.0687 8.70748L46.1463 8.91681L46.1765 9.10199L46.0169 9.20665L45.9911 9.70985L45.8143 10.0963L45.7194 10.1325L45.8531 10.3016L45.7927 10.4385L45.8445 10.6599L46.2455 11.1631L46.5731 11.6542L46.6766 11.7589L46.6939 11.5455L46.737 11.3885L46.6163 11.1711L46.668 11.0584L46.6465 10.8531L46.7758 10.8314L46.8362 10.7404L46.7025 10.3982V10.2614L46.8189 10.3821L46.875 10.3258L46.7758 10.1849C46.7758 10.1849 46.7111 10.1486 46.6982 10.1446C46.6576 10.0985 46.6202 10.0501 46.5861 9.99969L46.5257 9.8749L46.4179 9.94736L46.3662 9.84672L46.3748 9.66155L46.2541 9.29924L46.3791 9.23484L46.5042 9.32743L46.5559 9.04161L46.6292 8.9933L46.6723 9.25094L46.7586 9.13419L46.7844 9.00135L46.9741 8.96513L47.1682 9.06978V8.91681L47.4571 8.19222L47.6597 7.99898L47.8408 8.03923V7.87822L47.608 7.81381L47.5002 7.76952L47.3363 7.53202H47.0819L46.2757 7.97885L46.2929 7.72122L46.1592 7.5441L46.2282 7.39918L46.2929 7.57227L46.4438 7.67292L46.6206 7.56825L46.7758 7.69706L46.931 7.78563L46.9741 7.65279L47.082 7.77759L47.3148 7.78965L47.3493 7.74538L47.1854 7.51592ZM29.2012 12.4613L28.8713 12.4794L28.7161 12.5761L28.7484 12.6847L28.8713 12.7029V13.0108L28.7484 13.0229L28.6643 12.8176L28.4703 13.041L28.5479 13.3127L28.4509 13.4214L28.2827 13.506L28.2051 13.355L27.9917 13.4516L27.6942 13.6267L27.5713 13.5845L27.3643 13.5422L27.4614 13.3973L27.6489 13.2946L27.8559 13.1678L27.9917 13.0229L27.94 12.6787L28.1534 12.4976L28.134 12.3224L27.8882 12.1896V11.8696C27.9719 11.7971 28.0628 11.7324 28.1599 11.6763C28.1793 11.6884 28.3345 11.5254 28.3345 11.5254L28.3668 11.2416L28.5479 11.1027H28.729L28.7614 11.151L28.7678 11.3261L28.4638 11.6461L28.4121 11.773L28.4638 12.0386L28.5091 12.2802L28.7484 12.3647L29.0395 12.2258L29.2529 12.1836L29.5633 12.3224L29.2012 12.4613Z" fill="#1C6C85"/>
<path d="M33.334 23.9431L32.9841 24.3252L32.7418 24.5449L32.4547 24.5936L32.3829 24.7889L32.4457 25.2199L32.2394 25.3988V25.7973L32.3919 25.9844H32.67L32.8495 25.6509L33.2712 24.8051L33.2263 24.6262L33.4059 24.5123V24.2439L33.334 23.9431Z" fill="#1C6C85"/>
<path d="M40.2588 21.173H40.516L41.0565 21.7319L41.2795 21.8857L41.5626 22.2097L41.734 22.4689L41.8627 22.5662L41.8198 22.8174L41.8113 23.0685L41.554 22.9793L41.2795 22.7363L40.9192 22.0478L40.7734 21.7886L40.6019 21.6508L40.3275 21.3188L40.2588 21.173Z" fill="#1C6C85"/>
<path d="M41.8369 23.2141L41.717 23.3549L43.1012 23.6515L43.175 23.5403L42.9813 23.4811L42.8521 23.3179L42.5659 23.266L42.2613 23.3179L42.0399 23.2141H41.8369Z" fill="#1C6C85"/>
<path d="M43.5187 20.881L43.3216 21.2185L43.1425 21.269L42.99 21.5474L42.7213 21.6908V21.8933L42.4346 21.9354L42.3001 22.0451L42.3807 22.2222L42.551 22.6355H42.766L43.1425 22.7198L43.2499 22.9224L43.3933 22.7705L43.5636 22.3993V22.2222L43.7696 22.0535L43.904 22.0029L43.7069 21.792L43.6532 21.3533L43.7696 21.3365L43.904 21.2015L43.5187 20.881Z" fill="#1C6C85"/>
<path d="M44.9247 21.9019L44.6851 22.0018L44.2768 21.9019L44.0461 22.1248L43.9928 22.363L43.9041 22.5628L43.9573 22.7396L43.9396 23.0239C44.0283 23.1008 44.0727 23.0547 44.0727 23.0547L44.2147 22.778L44.1703 22.5244L44.3123 22.7242L44.3301 22.9471L44.5076 22.9855L44.623 22.8318L44.4987 22.4852L44.1614 22.2631L44.2679 22.071H44.5697L44.8093 22.0787L44.9247 21.9019Z" fill="#1C6C85"/>
<path d="M43.8045 18.84L43.7583 19.3863L43.9801 19.6396L44.1741 19.9562L44.3359 20.2649V20.4787L44.5068 20.8586L44.9689 21.0272V20.8586L45.0705 20.7874L45.0151 20.4708L44.821 20.2333L44.8025 19.9336L44.5068 19.6554C44.5068 19.6554 44.2019 19.5367 44.1741 19.5287C44.1325 19.4558 44.1014 19.3787 44.0817 19.2992V18.84H43.8045Z" fill="#1C6C85"/>
<path d="M45.7996 22.2496L46.0905 22.4987L45.8937 22.5952L45.9964 22.7158L46.0391 22.8845L46.2016 22.8283L46.5694 22.9809L46.8946 23.1658V23.5998L47.2024 23.8731L47.5703 23.8168L47.4847 23.6801L47.767 23.5998L47.8697 23.5435L48.0493 23.7606V23.9213L48.169 24.1383L48.5284 24.2347L48.6908 24.0821L48.3743 23.8409L48.2461 23.5998L48.1434 23.3627L48.3915 23.3104L48.7763 23.3266L49.0074 23.0292L48.8448 22.9729L48.7165 23.1658L48.3658 23.2422L47.9894 23.1257L47.8867 22.9086L47.3393 22.6917L46.7919 22.338L46.6207 22.5469L46.4155 22.6836L46.2529 22.4657L46.2615 22.1934H46.0477L45.7996 22.2496Z" fill="#1C6C85"/>
<path d="M42.5947 26.0949L42.4997 26.6103L42.4392 26.9807V27.5364L42.4997 27.7297L42.3183 28.0277L42.1542 28.1565L42.2751 28.3095L42.4997 28.3579L42.9488 28.2209L43.4325 28.2854L43.588 28.084L44.0458 27.9793L44.158 28.0679L44.4129 27.9471L44.7368 27.931L45.0045 28.1485L45.0564 28.4303V28.6397L45.1514 28.7364L45.255 28.5833L45.5919 28.3337L45.5314 28.5028L45.3673 28.6719L45.1341 28.8974L45.1859 28.978L45.35 28.9377L45.4278 28.7847L45.5919 28.6317L45.5141 28.8733L45.5401 28.9296L45.5487 29.1471L45.4796 29.3001L45.5919 29.4692L45.8855 29.6061L46.1706 29.5739L46.2829 29.7753L46.5593 29.6061L46.6715 29.5417L46.9134 29.5497L47.1812 29.1632L47.2675 29.0021L47.7426 28.5914L48.2004 27.7941L48.2781 27.4317V27.0049L48.1054 26.715L48.0881 26.5056L47.9844 26.3606L47.924 26.0465L47.6735 25.7888L47.708 25.5472C47.7052 25.4547 47.6907 25.3628 47.6649 25.2734C47.6626 25.1758 47.6742 25.0783 47.6994 24.9835L47.4921 24.8949V24.3151L47.3625 24.2345L47.2675 24.4036L47.0948 24.8788L46.9652 25.362L46.8702 25.515L46.7147 25.5231L46.5074 25.2976L46.2051 24.9754L46.3261 24.7097L46.5161 24.5003L46.4124 24.3875L46.2656 24.452L45.9546 24.3151L45.5573 24.3956C45.5573 24.3956 45.3932 24.6533 45.3846 24.6291C45.3759 24.605 45.2723 24.7661 45.2723 24.7661L45.3328 24.9191L45.0132 25.0076L45.0995 24.8305L44.9613 24.605L44.7454 24.7419L44.4863 24.9513V25.0962L44.3481 25.0721L44.3222 25.3056L44.2617 25.1446L44.2272 25.0479L44.0717 25.1848L44.0976 25.4103L43.968 25.5231L43.7434 25.6439L43.4498 25.6358L42.992 25.821L42.5947 26.0949Z" fill="#1C6C85"/>
<path d="M45.7484 30.0669L45.9662 30.185L46.3828 30.126L46.2313 30.303L46.1083 30.5113L45.8432 30.6501L45.7484 30.5877L45.6538 30.4349L45.7674 30.3585L45.7863 30.1988L45.7484 30.0669Z" fill="#1C6C85"/>
<path d="M50.5148 29.4082L50.5848 29.7903L50.5148 30.0008L50.5498 30.1723L50.3486 30.2347L50.1736 30.4219L50.2349 30.5388L50.3136 30.6792L50.2873 30.7961L50.5848 30.6246L50.6635 30.4842L50.8473 30.4063L51.0485 30.2191V30.1022C51.0485 30.1022 50.8473 30.1334 50.8473 30.1022C50.8473 30.071 50.8298 29.8059 50.8298 29.8059L50.751 29.7201L50.681 29.5096L50.6111 29.338L50.5148 29.4082Z" fill="#1C6C85"/>
<path d="M45.1948 13.4448L45.3155 13.7623L45.1948 13.9415L45.1084 14.0799L45.3501 14.2673L45.4535 14.5848V15.1304L45.2119 15.2771L45.1602 15.5131L44.8152 15.5947L44.6857 15.7169L44.5476 15.9122L44.634 16.0344L44.4873 16.0996L44.5476 16.303L44.7029 16.5068L44.8497 16.3926L44.8323 16.1566L45.0653 16.0425L45.5484 15.7901L45.8763 15.4969L45.764 14.935L45.7899 14.7396L45.5399 14.4301L45.5312 14.2509L45.3414 14.1451L45.4018 14.0149L45.7123 14.1451L45.721 14.0637L45.6346 13.9171L45.9453 13.8437V13.4936L45.8418 13.518L45.7123 13.6484L45.5399 13.5995L45.3414 13.4448H45.1948Z" fill="#1C6C85"/>
<path d="M44.3415 11.4037V11.5513L44.4045 11.6367L44.444 11.8155L44.6253 12.1106L44.7041 12.2271V12.4213L44.838 12.6311L45.0035 12.8641L45.035 13.0817L45.1809 13.2992L45.2163 13.1128L45.0586 12.8097L44.9247 12.4757L45.1296 12.5612L44.9562 12.3126L44.6805 11.932L44.5858 11.6833L44.444 11.5358L44.3888 11.4037H44.3415Z" fill="#1C6C85"/>
</g>
<mask id="path-3-outside-1_77_31636" maskUnits="userSpaceOnUse" x="6.18384" y="-0.0869141" width="35" height="37" fill="black">
<rect fill="white" x="6.18384" y="-0.0869141" width="35" height="37"/>
<path d="M24.408 35.8581C24.0164 36.074 23.5414 36.0747 23.1492 35.8599L7.8628 27.4865C7.44414 27.2571 7.18384 26.8177 7.18384 26.3404L7.18384 8.86136C7.18384 8.34157 7.49191 7.87121 7.96839 7.66349L23.2033 1.02196C23.5348 0.877467 23.9113 0.876769 24.2433 1.02004L39.4735 7.59246C39.9523 7.7991 40.2625 8.27071 40.2625 8.79225V26.3429C40.2625 26.8189 40.0036 27.2573 39.5868 27.4872L24.408 35.8581ZM7.39848 26.2185C7.39811 26.6968 7.65904 27.137 8.07874 27.3663L23.1504 35.5999C23.542 35.8139 24.0157 35.8132 24.4067 35.5981L39.3698 27.3678C39.7876 27.138 40.0471 26.6988 40.0468 26.222L40.0359 8.92044C40.0355 8.39871 39.7249 7.92718 39.2457 7.72095L24.2423 1.26439C23.911 1.12182 23.5356 1.12252 23.2048 1.26632L8.19745 7.79092C7.72066 7.9982 7.41211 8.46841 7.41171 8.9883L7.39848 26.2185Z"/>
<path d="M12.5192 29.7642C12.4839 29.7642 12.4545 29.7396 12.4531 29.7081V11.3086C12.4531 10.8085 12.7385 10.3522 13.1883 10.1335L28.2355 2.8155C28.2675 2.79995 28.3078 2.81024 28.3254 2.83856C28.343 2.86691 28.3314 2.9025 28.2993 2.91808L13.3239 10.2012C12.8742 10.4199 12.5887 10.876 12.5886 11.3761L12.5854 29.7033C12.5869 29.7356 12.5585 29.7629 12.522 29.7642C12.521 29.7642 12.5201 29.7642 12.5192 29.7642Z"/>
<path d="M29.4117 32.9251H29.4108C29.3742 32.9246 29.3449 32.8981 29.3454 32.8657L29.3444 14.2254C29.3444 13.7332 29.0678 13.2828 28.6289 13.0601L13.5838 5.42731C13.5521 5.41127 13.5411 5.37548 13.5593 5.34744C13.5774 5.31935 13.6179 5.30959 13.6496 5.32571L28.7623 12.9927C29.2013 13.2154 29.4778 13.6659 29.4778 14.1581V32.8673C29.4774 32.8994 29.4478 32.9251 29.4117 32.9251Z"/>
<path d="M34.8969 29.8319C34.8962 29.8319 34.8955 29.8319 34.8948 29.8319C34.8583 29.8309 34.8296 29.8039 34.8307 29.7715L34.8283 11.34C34.8282 10.8367 34.5391 10.3782 34.085 10.1612L19.1291 3.01319C19.0971 2.99764 19.0853 2.96209 19.1029 2.93374C19.1205 2.90539 19.1607 2.89502 19.1928 2.91053L34.2199 10.093C34.674 10.31 34.9631 10.7686 34.9631 11.272V29.7752C34.962 29.8069 34.9325 29.8319 34.8969 29.8319Z"/>
<path d="M24.3956 29.503C23.9939 29.7326 23.5008 29.7327 23.099 29.5033L7.31913 20.4923C7.28843 20.4747 7.27966 20.4385 7.29955 20.4113C7.31945 20.3842 7.36047 20.3765 7.39112 20.394L23.099 29.3639C23.5008 29.5933 23.9939 29.5932 24.3955 29.3636L40.0554 20.4113C40.0861 20.3939 40.1271 20.4015 40.1469 20.4286C40.1668 20.4557 40.1581 20.492 40.1274 20.5096L24.3956 29.503Z"/>
<path d="M23.7492 23.0424C23.7274 23.0544 23.7009 23.0544 23.6791 23.0424L7.2995 14.0211C7.26848 14.004 7.25902 13.9679 7.27835 13.9404C7.29773 13.913 7.33855 13.9047 7.3696 13.9218L23.0831 22.5762C23.4759 22.7925 23.9522 22.7924 24.3448 22.5757L40.0293 13.9218C40.0604 13.9047 40.1012 13.913 40.1205 13.9404C40.1399 13.9679 40.1305 14.0039 40.0994 14.0211L23.7492 23.0424Z"/>
<path d="M17.9771 32.8553C17.9412 32.8553 17.9118 32.83 17.9109 32.7982L17.9091 14.1812C17.909 13.6881 18.1866 13.237 18.6267 13.0147L33.9344 5.28359C33.9662 5.26739 34.0066 5.27722 34.0248 5.30519C34.043 5.33324 34.0321 5.36902 34.0003 5.3851L18.7609 13.0816C18.3208 13.3039 18.0433 13.7549 18.0433 14.248V32.7954C18.0442 32.8277 18.0153 32.8545 17.9787 32.8553H17.9771Z"/>
<path d="M23.7903 35.7998C23.7296 35.7998 23.6802 35.7564 23.6799 35.7027L23.5735 16.9235C23.5706 16.4267 23.8498 15.9712 24.2939 15.7483L39.6796 8.02381C39.7318 7.99614 39.7997 8.01112 39.831 8.0573C39.8623 8.10353 39.8454 8.16343 39.7931 8.19117L24.5155 15.8585C24.0713 16.0814 23.7921 16.5369 23.7949 17.0338L23.9006 35.7017C23.901 35.7555 23.8518 35.7994 23.7909 35.7998H23.7903Z"/>
<path d="M23.6795 16.3655C23.6602 16.3655 23.6407 16.361 23.6229 16.3517L7.54337 8.30385C7.49108 8.27618 7.47405 8.21628 7.50535 8.17002C7.53663 8.12379 7.60438 8.10877 7.65671 8.13641L23.7363 16.1842C23.7886 16.2119 23.8056 16.2718 23.7743 16.318C23.7536 16.3486 23.717 16.3655 23.6795 16.3655Z"/>
</mask>
<path d="M24.408 35.8581C24.0164 36.074 23.5414 36.0747 23.1492 35.8599L7.8628 27.4865C7.44414 27.2571 7.18384 26.8177 7.18384 26.3404L7.18384 8.86136C7.18384 8.34157 7.49191 7.87121 7.96839 7.66349L23.2033 1.02196C23.5348 0.877467 23.9113 0.876769 24.2433 1.02004L39.4735 7.59246C39.9523 7.7991 40.2625 8.27071 40.2625 8.79225V26.3429C40.2625 26.8189 40.0036 27.2573 39.5868 27.4872L24.408 35.8581ZM7.39848 26.2185C7.39811 26.6968 7.65904 27.137 8.07874 27.3663L23.1504 35.5999C23.542 35.8139 24.0157 35.8132 24.4067 35.5981L39.3698 27.3678C39.7876 27.138 40.0471 26.6988 40.0468 26.222L40.0359 8.92044C40.0355 8.39871 39.7249 7.92718 39.2457 7.72095L24.2423 1.26439C23.911 1.12182 23.5356 1.12252 23.2048 1.26632L8.19745 7.79092C7.72066 7.9982 7.41211 8.46841 7.41171 8.9883L7.39848 26.2185Z" fill="black"/>
<path d="M12.5192 29.7642C12.4839 29.7642 12.4545 29.7396 12.4531 29.7081V11.3086C12.4531 10.8085 12.7385 10.3522 13.1883 10.1335L28.2355 2.8155C28.2675 2.79995 28.3078 2.81024 28.3254 2.83856C28.343 2.86691 28.3314 2.9025 28.2993 2.91808L13.3239 10.2012C12.8742 10.4199 12.5887 10.876 12.5886 11.3761L12.5854 29.7033C12.5869 29.7356 12.5585 29.7629 12.522 29.7642C12.521 29.7642 12.5201 29.7642 12.5192 29.7642Z" fill="black"/>
<path d="M29.4117 32.9251H29.4108C29.3742 32.9246 29.3449 32.8981 29.3454 32.8657L29.3444 14.2254C29.3444 13.7332 29.0678 13.2828 28.6289 13.0601L13.5838 5.42731C13.5521 5.41127 13.5411 5.37548 13.5593 5.34744C13.5774 5.31935 13.6179 5.30959 13.6496 5.32571L28.7623 12.9927C29.2013 13.2154 29.4778 13.6659 29.4778 14.1581V32.8673C29.4774 32.8994 29.4478 32.9251 29.4117 32.9251Z" fill="black"/>
<path d="M34.8969 29.8319C34.8962 29.8319 34.8955 29.8319 34.8948 29.8319C34.8583 29.8309 34.8296 29.8039 34.8307 29.7715L34.8283 11.34C34.8282 10.8367 34.5391 10.3782 34.085 10.1612L19.1291 3.01319C19.0971 2.99764 19.0853 2.96209 19.1029 2.93374C19.1205 2.90539 19.1607 2.89502 19.1928 2.91053L34.2199 10.093C34.674 10.31 34.9631 10.7686 34.9631 11.272V29.7752C34.962 29.8069 34.9325 29.8319 34.8969 29.8319Z" fill="black"/>
<path d="M24.3956 29.503C23.9939 29.7326 23.5008 29.7327 23.099 29.5033L7.31913 20.4923C7.28843 20.4747 7.27966 20.4385 7.29955 20.4113C7.31945 20.3842 7.36047 20.3765 7.39112 20.394L23.099 29.3639C23.5008 29.5933 23.9939 29.5932 24.3955 29.3636L40.0554 20.4113C40.0861 20.3939 40.1271 20.4015 40.1469 20.4286C40.1668 20.4557 40.1581 20.492 40.1274 20.5096L24.3956 29.503Z" fill="black"/>
<path d="M23.7492 23.0424C23.7274 23.0544 23.7009 23.0544 23.6791 23.0424L7.2995 14.0211C7.26848 14.004 7.25902 13.9679 7.27835 13.9404C7.29773 13.913 7.33855 13.9047 7.3696 13.9218L23.0831 22.5762C23.4759 22.7925 23.9522 22.7924 24.3448 22.5757L40.0293 13.9218C40.0604 13.9047 40.1012 13.913 40.1205 13.9404C40.1399 13.9679 40.1305 14.0039 40.0994 14.0211L23.7492 23.0424Z" fill="black"/>
<path d="M17.9771 32.8553C17.9412 32.8553 17.9118 32.83 17.9109 32.7982L17.9091 14.1812C17.909 13.6881 18.1866 13.237 18.6267 13.0147L33.9344 5.28359C33.9662 5.26739 34.0066 5.27722 34.0248 5.30519C34.043 5.33324 34.0321 5.36902 34.0003 5.3851L18.7609 13.0816C18.3208 13.3039 18.0433 13.7549 18.0433 14.248V32.7954C18.0442 32.8277 18.0153 32.8545 17.9787 32.8553H17.9771Z" fill="black"/>
<path d="M23.7903 35.7998C23.7296 35.7998 23.6802 35.7564 23.6799 35.7027L23.5735 16.9235C23.5706 16.4267 23.8498 15.9712 24.2939 15.7483L39.6796 8.02381C39.7318 7.99614 39.7997 8.01112 39.831 8.0573C39.8623 8.10353 39.8454 8.16343 39.7931 8.19117L24.5155 15.8585C24.0713 16.0814 23.7921 16.5369 23.7949 17.0338L23.9006 35.7017C23.901 35.7555 23.8518 35.7994 23.7909 35.7998H23.7903Z" fill="black"/>
<path d="M23.6795 16.3655C23.6602 16.3655 23.6407 16.361 23.6229 16.3517L7.54337 8.30385C7.49108 8.27618 7.47405 8.21628 7.50535 8.17002C7.53663 8.12379 7.60438 8.10877 7.65671 8.13641L23.7363 16.1842C23.7886 16.2119 23.8056 16.2718 23.7743 16.318C23.7536 16.3486 23.717 16.3655 23.6795 16.3655Z" fill="black"/>
<path d="M24.408 35.8581C24.0164 36.074 23.5414 36.0747 23.1492 35.8599L7.8628 27.4865C7.44414 27.2571 7.18384 26.8177 7.18384 26.3404L7.18384 8.86136C7.18384 8.34157 7.49191 7.87121 7.96839 7.66349L23.2033 1.02196C23.5348 0.877467 23.9113 0.876769 24.2433 1.02004L39.4735 7.59246C39.9523 7.7991 40.2625 8.27071 40.2625 8.79225V26.3429C40.2625 26.8189 40.0036 27.2573 39.5868 27.4872L24.408 35.8581ZM7.39848 26.2185C7.39811 26.6968 7.65904 27.137 8.07874 27.3663L23.1504 35.5999C23.542 35.8139 24.0157 35.8132 24.4067 35.5981L39.3698 27.3678C39.7876 27.138 40.0471 26.6988 40.0468 26.222L40.0359 8.92044C40.0355 8.39871 39.7249 7.92718 39.2457 7.72095L24.2423 1.26439C23.911 1.12182 23.5356 1.12252 23.2048 1.26632L8.19745 7.79092C7.72066 7.9982 7.41211 8.46841 7.41171 8.9883L7.39848 26.2185Z" stroke="black" stroke-width="0.653373" mask="url(#path-3-outside-1_77_31636)"/>
<path d="M12.5192 29.7642C12.4839 29.7642 12.4545 29.7396 12.4531 29.7081V11.3086C12.4531 10.8085 12.7385 10.3522 13.1883 10.1335L28.2355 2.8155C28.2675 2.79995 28.3078 2.81024 28.3254 2.83856C28.343 2.86691 28.3314 2.9025 28.2993 2.91808L13.3239 10.2012C12.8742 10.4199 12.5887 10.876 12.5886 11.3761L12.5854 29.7033C12.5869 29.7356 12.5585 29.7629 12.522 29.7642C12.521 29.7642 12.5201 29.7642 12.5192 29.7642Z" stroke="black" stroke-width="0.653373" mask="url(#path-3-outside-1_77_31636)"/>
<path d="M29.4117 32.9251H29.4108C29.3742 32.9246 29.3449 32.8981 29.3454 32.8657L29.3444 14.2254C29.3444 13.7332 29.0678 13.2828 28.6289 13.0601L13.5838 5.42731C13.5521 5.41127 13.5411 5.37548 13.5593 5.34744C13.5774 5.31935 13.6179 5.30959 13.6496 5.32571L28.7623 12.9927C29.2013 13.2154 29.4778 13.6659 29.4778 14.1581V32.8673C29.4774 32.8994 29.4478 32.9251 29.4117 32.9251Z" stroke="black" stroke-width="0.653373" mask="url(#path-3-outside-1_77_31636)"/>
<path d="M34.8969 29.8319C34.8962 29.8319 34.8955 29.8319 34.8948 29.8319C34.8583 29.8309 34.8296 29.8039 34.8307 29.7715L34.8283 11.34C34.8282 10.8367 34.5391 10.3782 34.085 10.1612L19.1291 3.01319C19.0971 2.99764 19.0853 2.96209 19.1029 2.93374C19.1205 2.90539 19.1607 2.89502 19.1928 2.91053L34.2199 10.093C34.674 10.31 34.9631 10.7686 34.9631 11.272V29.7752C34.962 29.8069 34.9325 29.8319 34.8969 29.8319Z" stroke="black" stroke-width="0.653373" mask="url(#path-3-outside-1_77_31636)"/>
<path d="M24.3956 29.503C23.9939 29.7326 23.5008 29.7327 23.099 29.5033L7.31913 20.4923C7.28843 20.4747 7.27966 20.4385 7.29955 20.4113C7.31945 20.3842 7.36047 20.3765 7.39112 20.394L23.099 29.3639C23.5008 29.5933 23.9939 29.5932 24.3955 29.3636L40.0554 20.4113C40.0861 20.3939 40.1271 20.4015 40.1469 20.4286C40.1668 20.4557 40.1581 20.492 40.1274 20.5096L24.3956 29.503Z" stroke="black" stroke-width="0.653373" mask="url(#path-3-outside-1_77_31636)"/>
<path d="M23.7492 23.0424C23.7274 23.0544 23.7009 23.0544 23.6791 23.0424L7.2995 14.0211C7.26848 14.004 7.25902 13.9679 7.27835 13.9404C7.29773 13.913 7.33855 13.9047 7.3696 13.9218L23.0831 22.5762C23.4759 22.7925 23.9522 22.7924 24.3448 22.5757L40.0293 13.9218C40.0604 13.9047 40.1012 13.913 40.1205 13.9404C40.1399 13.9679 40.1305 14.0039 40.0994 14.0211L23.7492 23.0424Z" stroke="black" stroke-width="0.653373" mask="url(#path-3-outside-1_77_31636)"/>
<path d="M17.9771 32.8553C17.9412 32.8553 17.9118 32.83 17.9109 32.7982L17.9091 14.1812C17.909 13.6881 18.1866 13.237 18.6267 13.0147L33.9344 5.28359C33.9662 5.26739 34.0066 5.27722 34.0248 5.30519C34.043 5.33324 34.0321 5.36902 34.0003 5.3851L18.7609 13.0816C18.3208 13.3039 18.0433 13.7549 18.0433 14.248V32.7954C18.0442 32.8277 18.0153 32.8545 17.9787 32.8553H17.9771Z" stroke="black" stroke-width="0.653373" mask="url(#path-3-outside-1_77_31636)"/>
<path d="M23.7903 35.7998C23.7296 35.7998 23.6802 35.7564 23.6799 35.7027L23.5735 16.9235C23.5706 16.4267 23.8498 15.9712 24.2939 15.7483L39.6796 8.02381C39.7318 7.99614 39.7997 8.01112 39.831 8.0573C39.8623 8.10353 39.8454 8.16343 39.7931 8.19117L24.5155 15.8585C24.0713 16.0814 23.7921 16.5369 23.7949 17.0338L23.9006 35.7017C23.901 35.7555 23.8518 35.7994 23.7909 35.7998H23.7903Z" stroke="black" stroke-width="0.653373" mask="url(#path-3-outside-1_77_31636)"/>
<path d="M23.6795 16.3655C23.6602 16.3655 23.6407 16.361 23.6229 16.3517L7.54337 8.30385C7.49108 8.27618 7.47405 8.21628 7.50535 8.17002C7.53663 8.12379 7.60438 8.10877 7.65671 8.13641L23.7363 16.1842C23.7886 16.2119 23.8056 16.2718 23.7743 16.318C23.7536 16.3486 23.717 16.3655 23.6795 16.3655Z" stroke="black" stroke-width="0.653373" mask="url(#path-3-outside-1_77_31636)"/>
</g>
<defs>
<clipPath id="clip0_77_31636">
<rect width="36.0988" height="36.0988" fill="white" transform="translate(5.60181 0.507812)"/>
</clipPath>
<clipPath id="clip1_77_31636">
<rect width="33.1587" height="29.8918" fill="white" transform="translate(7.23523 4.91797)"/>
</clipPath>
</defs>
</svg>
