<svg width="154" height="37" viewBox="0 0 154 37" fill="none" xmlns="http://www.w3.org/2000/svg">
<path d="M55.4575 24.2991C54.2837 24.2991 53.2962 24.0396 52.4948 23.5204C51.6935 22.9899 51.1292 22.2733 50.8019 21.3704L52.7996 20.2022C53.2623 21.4099 54.1708 22.0137 55.5252 22.0137C56.1798 22.0137 56.6595 21.8952 56.9642 21.6582C57.2689 21.4212 57.4213 21.1221 57.4213 20.7609C57.4213 20.3433 57.2351 20.0217 56.8626 19.7959C56.4902 19.5589 55.8243 19.305 54.865 19.0341C54.3345 18.8761 53.883 18.7181 53.5106 18.5601C53.1494 18.4021 52.7826 18.1933 52.4102 17.9337C52.049 17.6628 51.7725 17.3243 51.5807 16.918C51.3888 16.5116 51.2929 16.0376 51.2929 15.4959C51.2929 14.4237 51.6709 13.5716 52.4271 12.9396C53.1946 12.2962 54.1144 11.9746 55.1866 11.9746C56.1459 11.9746 56.9868 12.2116 57.7091 12.6856C58.4427 13.1484 59.0126 13.7973 59.4189 14.6325L57.4551 15.7668C56.9811 14.751 56.2249 14.2431 55.1866 14.2431C54.7013 14.2431 54.3176 14.356 54.0354 14.5817C53.7645 14.7961 53.6291 15.0783 53.6291 15.4282C53.6291 15.8006 53.7815 16.1053 54.0862 16.3424C54.4022 16.5681 55.0004 16.8164 55.8807 17.0872C56.2419 17.2001 56.5127 17.2904 56.6933 17.3581C56.8852 17.4145 57.1391 17.5105 57.4551 17.6459C57.7824 17.7701 58.0307 17.8886 58.2 18.0014C58.3806 18.1143 58.5838 18.2667 58.8095 18.4585C59.0352 18.6504 59.2045 18.8479 59.3174 19.051C59.4415 19.2542 59.5431 19.5025 59.6221 19.7959C59.7124 20.0781 59.7575 20.3885 59.7575 20.7271C59.7575 21.8218 59.3569 22.6909 58.5555 23.3342C57.7655 23.9775 56.7328 24.2991 55.4575 24.2991ZM63.2565 20.7271C63.5499 21.788 64.3456 22.3184 65.6435 22.3184C66.4787 22.3184 67.1107 22.0363 67.5396 21.4719L69.3003 22.4877C68.4651 23.6953 67.2349 24.2991 65.6097 24.2991C64.2102 24.2991 63.0872 23.8759 62.2407 23.0294C61.3943 22.183 60.971 21.1164 60.971 19.8298C60.971 18.5545 61.3886 17.4936 62.2238 16.6471C63.059 15.7893 64.1312 15.3605 65.4404 15.3605C66.6819 15.3605 67.7033 15.7893 68.5046 16.6471C69.3172 17.5048 69.7235 18.5657 69.7235 19.8298C69.7235 20.112 69.6953 20.411 69.6388 20.7271H63.2565ZM63.2226 19.0341H67.5396C67.4155 18.4585 67.1559 18.0296 66.7609 17.7475C66.3771 17.4653 65.937 17.3243 65.4404 17.3243C64.8535 17.3243 64.3682 17.4766 63.9844 17.7813C63.6007 18.0748 63.3468 18.4924 63.2226 19.0341ZM71.2481 24.0621V11.7037H73.4319V24.0621H71.2481ZM76.5143 14.5817C76.1531 14.5817 75.8371 14.4519 75.5662 14.1923C75.3066 13.9215 75.1769 13.6054 75.1769 13.2443C75.1769 12.8831 75.3066 12.5671 75.5662 12.2962C75.8371 12.0254 76.1531 11.8899 76.5143 11.8899C76.8867 11.8899 77.2027 12.0254 77.4623 12.2962C77.7332 12.5671 77.8686 12.8831 77.8686 13.2443C77.8686 13.6054 77.7332 13.9215 77.4623 14.1923C77.2027 14.4519 76.8867 14.5817 76.5143 14.5817ZM75.4308 24.0621V15.5975H77.6147V24.0621H75.4308ZM84.3199 15.3605C85.2454 15.3605 86.0072 15.6708 86.6053 16.2916C87.2148 16.9123 87.5195 17.7701 87.5195 18.8648V24.0621H85.3356V19.1357C85.3356 18.5714 85.1833 18.1425 84.8786 17.8491C84.5738 17.5443 84.1675 17.392 83.6596 17.392C83.0953 17.392 82.6439 17.5669 82.3053 17.9168C81.9667 18.2667 81.7974 18.7915 81.7974 19.4912V24.0621H79.6135V15.5975H81.7974V16.5455C82.3279 15.7555 83.1687 15.3605 84.3199 15.3605ZM101.556 12.2116V14.4463H98.3568V24.0621H96.0206V14.4463H92.8379V12.2116H101.556ZM108.433 23.0125C107.564 23.8703 106.504 24.2991 105.251 24.2991C103.998 24.2991 102.937 23.8703 102.068 23.0125C101.21 22.1435 100.781 21.0826 100.781 19.8298C100.781 18.577 101.21 17.5218 102.068 16.664C102.937 15.795 103.998 15.3605 105.251 15.3605C106.504 15.3605 107.564 15.795 108.433 16.664C109.303 17.5218 109.737 18.577 109.737 19.8298C109.737 21.0826 109.303 22.1435 108.433 23.0125ZM103.609 21.5058C104.049 21.946 104.596 22.166 105.251 22.166C105.905 22.166 106.453 21.946 106.893 21.5058C107.333 21.0656 107.553 20.507 107.553 19.8298C107.553 19.1526 107.333 18.594 106.893 18.1538C106.453 17.7136 105.905 17.4936 105.251 17.4936C104.596 17.4936 104.049 17.7136 103.609 18.1538C103.18 18.594 102.965 19.1526 102.965 19.8298C102.965 20.507 103.18 21.0656 103.609 21.5058ZM116.86 15.5975H119.044V24.0621H116.86V23.1141C116.33 23.9041 115.489 24.2991 114.338 24.2991C113.412 24.2991 112.645 23.9888 112.035 23.368C111.437 22.7473 111.138 21.8895 111.138 20.7948V15.5975H113.322V20.5239C113.322 21.0882 113.474 21.5227 113.779 21.8275C114.084 22.1209 114.49 22.2676 114.998 22.2676C115.562 22.2676 116.014 22.0927 116.352 21.7428C116.691 21.3929 116.86 20.8681 116.86 20.1684V15.5975ZM123.228 17.0534C123.431 16.5116 123.764 16.1053 124.227 15.8345C124.701 15.5636 125.226 15.4282 125.801 15.4282V17.866C125.135 17.787 124.537 17.9224 124.007 18.2723C123.488 18.6222 123.228 19.2034 123.228 20.016V24.0621H121.044V15.5975H123.228V17.0534ZM131.412 12.2116H133.749V24.0621H131.412V12.2116ZM140.547 15.3605C141.473 15.3605 142.234 15.6708 142.833 16.2916C143.442 16.9123 143.747 17.7701 143.747 18.8648V24.0621H141.563V19.1357C141.563 18.5714 141.411 18.1425 141.106 17.8491C140.801 17.5443 140.395 17.392 139.887 17.392C139.323 17.392 138.871 17.5669 138.533 17.9168C138.194 18.2667 138.025 18.7915 138.025 19.4912V24.0621H135.841V15.5975H138.025V16.5455C138.555 15.7555 139.396 15.3605 140.547 15.3605ZM149.641 24.2991C148.365 24.2991 147.299 23.8703 146.441 23.0125C145.595 22.1548 145.171 21.0939 145.171 19.8298C145.171 18.5657 145.595 17.5048 146.441 16.6471C147.299 15.7893 148.365 15.3605 149.641 15.3605C150.465 15.3605 151.215 15.558 151.892 15.953C152.569 16.348 153.083 16.8785 153.433 17.5443L151.554 18.6447C151.384 18.2949 151.125 18.0184 150.775 17.8152C150.436 17.6121 150.053 17.5105 149.624 17.5105C148.969 17.5105 148.427 17.7306 147.999 18.1707C147.57 18.5996 147.355 19.1526 147.355 19.8298C147.355 20.4957 147.57 21.0487 147.999 21.4889C148.427 21.9178 148.969 22.1322 149.624 22.1322C150.064 22.1322 150.453 22.0363 150.792 21.8444C151.142 21.6412 151.401 21.3647 151.571 21.0149L153.467 22.0983C153.094 22.7642 152.569 23.3003 151.892 23.7066C151.215 24.1016 150.465 24.2991 149.641 24.2991Z" fill="#1C6C85"/>
<g clip-path="url(#clip0_75_20846)">
<g clip-path="url(#clip1_75_20846)">
<path d="M10.2399 8.37915L9.55957 7.83121L8.85061 7.29939L8.43562 7.49294L8.09803 7.88814L7.45825 8.02481L7.30264 8.17822L7.18747 8.28243L7.01453 8.45971L7.22205 8.68534L7.23933 8.99152L7.41221 9.03988L7.17922 8.74972L7.01453 8.97541L5.84192 7.9279V8.16964L5.99754 8.37915L6.32608 8.47583C6.51628 8.41137 6.2915 8.63699 6.2915 8.63699C6.2915 8.63699 5.69825 8.86261 5.70092 8.81427C5.70359 8.76591 5.42693 8.97541 5.42693 8.97541V9.28162L5.25401 9.42666L5.37505 9.6684L5.54797 9.94237L5.91108 10.0713L5.85922 10.3291L5.15027 10.732H4.63151L4.2511 11.081L4.66609 10.8932L5.23671 10.8609L6.23962 10.4802L6.60274 10.313L6.68919 9.86178L7.10419 9.81344V10.0713L7.77854 10.1519L8.22814 10.3775L8.59124 10.8771L8.83333 11.7312L8.88519 12.9399L8.98895 13.6651L8.4875 14.4709L8.21084 15.5345L8.43562 16.2275L8.74687 16.582L8.88519 17.3072L9.07541 17.9196L9.02353 18.2097L9.36937 18.5965L9.23103 18.0969L9.07541 17.3556L9.04081 16.856L9.30019 17.0494V17.4039L9.57685 17.8551L10.0091 18.7576L9.92268 19.1283L10.2399 19.4506H10.476L10.7354 19.7085L11.1158 19.8696L11.4616 19.789L11.8247 20.1758H12.2916L12.6029 20.6915L13.0697 21.1105L13.4155 21.2878L13.6576 21.0622L13.8305 21.1266L13.9516 21.3546L13.8305 22.0613L13.4328 22.5287L13.502 22.8994L13.3118 23.125L13.3982 23.4956H13.5712L13.9516 24.3498L14.3666 24.8816L15.1274 25.3006L15.2484 26.0419L15.404 27.9597L15.283 28.6365L15.404 29.1683L15.6461 29.7646V30.5543L15.9574 31.1345L16.4761 31.5857H17.2369L16.5972 31.1989L16.5107 30.796L16.7701 30.2481L16.4934 29.8774L16.7355 29.5712L16.649 29.0878L16.9603 28.9911L17.0467 28.6204L17.5136 28.4754L17.6519 28.1208L17.2888 27.7341L17.894 27.863L18.2225 27.2506L18.5857 26.7027V26.3642L18.8623 26.0258L19.1909 25.8808L19.5713 25.8002L19.7096 25.3973L19.8998 24.8977V24.4142L20.3494 23.8985L20.4358 23.4312L20.2975 23.125L19.9517 23.1572L19.5194 22.8832L18.9142 22.8671L18.6029 22.5609L17.9632 22.4642L18.1015 22.2064L17.894 21.739L17.3926 21.4973H16.9603L16.5107 21.0622L16.1476 20.8043L15.8363 20.901L15.5942 20.7721L15.283 20.8527L15.0582 20.5787L14.8507 20.756L14.4703 20.7237L14.1072 21.0622L13.8132 20.9494L13.4155 21.0299L13.1043 20.901L12.966 20.5465L13.0697 20.0308L12.7412 19.9985L12.3435 19.8535L12.5337 19.5151L12.7066 19.1444L12.6029 18.9349L12.3435 19.0638L12.1706 19.225L11.842 19.4506L11.3233 19.3861L11.0985 18.7254L11.2541 18.2258L11.5135 17.7262L11.7901 17.5812C11.7901 17.5812 12.1706 17.4684 12.1706 17.5167C12.1706 17.5651 12.4472 17.6779 12.4472 17.6779L12.6547 17.4845L12.966 17.5167L13.2426 17.5651L13.4847 17.549L13.6403 17.7907L13.5712 18.0485L13.7095 18.3225L13.7787 18.4676L13.9861 18.1775L13.8305 17.5651L14.4011 16.9204L14.8507 16.7754L15.2484 16.0502L15.6288 15.7762L15.9747 15.6473L16.0784 15.3733L16.5626 15.1799L16.7009 15.4217L17.1678 15.2766L17.4617 15.0188L17.0467 14.7448V14.3581L16.943 14.1647L17.6519 14.1163L18.2398 14.1002C18.1064 14.2359 17.9849 14.3814 17.8767 14.5353C17.8767 14.5837 17.9632 14.6643 17.9632 14.6643L18.6202 14.8737L18.5511 14.4709H18.2225L18.4646 14.0841L18.4473 13.5039L18.0323 13.0527L17.894 12.4081L17.7902 12.1985L17.4271 12.5692L17.0986 12.4564L17.1159 11.9568L16.7355 11.5539L16.2859 11.4572L16.1303 12.0052L15.9055 12.263L16.0265 12.5531L15.9228 13.0043L15.4905 13.1333L15.4386 13.4717L15.1966 13.7295L14.9718 13.52L15.1447 12.9238L14.7643 12.8109L14.2109 12.3919L13.9861 12.4081L13.9516 11.6667L14.4357 11.081L15.2657 10.8287L15.5942 10.3936L15.8363 10.4802L16.2167 10.3936L16.4156 9.82149L16.0915 9.66962C16.0915 9.66962 16.0092 9.94237 15.9574 9.94237L15.6202 10.176L15.577 9.97458L15.6893 9.74897L15.5597 9.64422L15.3954 9.88595L15.3522 9.45084L15.3695 9.03988L15.2311 8.82232L14.9285 9.0157L14.894 9.28967L14.9977 9.475L14.9718 9.74092L14.6346 9.95042L14.5481 9.6684L14.3493 9.65227L14.332 9.7812L13.9948 9.70063L13.649 9.53141L13.5452 9.33803L13.3118 9.35414L13.1994 9.71674L13.0438 9.52336L12.9055 9.41055L12.3867 9.31385L12.5337 9.2091L12.4991 9.02377L12.3002 8.91096L11.8507 8.56447L11.4097 8.50001L10.9602 8.15352L10.4414 8.20187L10.2399 8.37915Z" fill="#1C6C85"/>
<path d="M16.3443 8.5475L15.9051 8.70911L15.77 9.08886V9.32319L16.0572 9.38783L16.5386 9.58982C16.5386 9.58982 16.8596 9.5575 16.8849 9.54943C16.9102 9.54135 17.0623 9.81607 17.0623 9.81607L17.3326 10.2281V10.4463L16.9947 10.6322L16.9356 10.8261H16.6315L16.4119 10.9392L16.4879 11.1008L16.8174 10.9554L16.9525 11.1493L17.1636 11.4886L17.5859 11.7553H17.6873L17.4846 11.3513L17.6366 11.3674L17.7802 11.6018L17.966 11.4482V11.2301L17.6957 10.8826L17.8393 10.721L18.0336 10.915L18.1265 11.125L18.363 10.9392L18.5404 10.6483L18.3377 10.5998L18.0505 10.2605L17.9829 10.1514L18.0083 9.86455L17.5437 9.44438L17.3241 9.12118L17.2143 8.79798L16.8934 8.74951L16.7582 8.65254L16.4119 8.76566L16.3443 9.11311L16.2092 9.04846L16.2937 8.72526L16.5386 8.5475H16.3443Z" fill="#1C6C85"/>
<path d="M12.2491 7.23572L12.2838 7.54792L12.0238 7.58794L11.8331 7.8281L11.9024 8.1323H12.1538L12.6911 7.89214L12.6218 8.02823L12.4745 8.1323L12.6911 8.26037L12.4658 8.31642L12.5004 8.40447L13.0031 8.58058L12.9598 8.67665L12.6565 8.53255L12.4181 8.5966V8.72469L12.5785 8.81274L12.6998 8.93281L12.6651 9.04489L12.7345 9.12494L13.0031 9.18098H13.4278L13.6098 9.08491L13.7831 9.27703H14.0345L14.2252 9.14896L14.3118 8.99685L14.0952 8.82074C14.0952 8.82074 13.9912 8.69266 14.0172 8.69266C14.0536 8.68376 14.0886 8.67029 14.1212 8.65264L14.1472 8.22035L13.9391 8.05224L13.8265 8.18033V8.38046L13.6791 8.2924L13.6445 8.03624L13.5058 8.02023L13.2025 7.97219L13.2285 7.80408L13.1245 7.64398L12.8905 7.41183L12.7171 7.46787L12.5785 7.23572H12.2491Z" fill="#1C6C85"/>
<path d="M13.6809 6.60518L13.346 6.50639L13.1313 6.63601L12.7713 6.67917L12.7081 6.82729L12.9419 6.95075L13.1944 6.91345L13.3271 7.09887L13.1944 7.12969V7.22639L13.4282 7.35195L13.5419 7.29646L13.5987 7.45075H13.4534L13.4471 7.54323L13.5798 7.6297L13.7882 7.67285L14.003 7.56789L14.2747 7.67285L14.4578 7.50007L14.4199 7.32729L14.2451 7.25315L14.2936 7.05571L14.0913 7.08969L14.0977 7.22639L14.085 7.38894L13.8388 7.37661L13.7692 7.08969L13.5829 6.93842L13.4282 7.00639L13.2261 6.80879L13.3714 6.69766L13.4913 6.83977L13.624 6.7739L13.6809 6.60518Z" fill="#1C6C85"/>
<path d="M16.7127 6.40379L17.4521 6.36056L17.7928 6.51962L18.1722 6.44009L18.5708 6.51962L19.4002 6.75708L19.5609 6.85553L19.3744 6.93632L19.1173 6.95977L18.9951 7.06981L18.6544 7.1567L18.4229 7.30148H17.7864V7.39415L18.005 7.46364L17.9471 7.57947L17.6578 7.64897L17.5164 7.74744H17.3492L17.4971 7.88643L17.4135 7.99067L17.0749 7.9038L16.2369 7.64897L16.0119 7.71846L16.0505 7.88643L16.2498 7.99067L16.6227 8.07175L16.9184 8.02543L17.1628 8.21462L17.1242 8.34396L16.9442 8.40187L16.5262 8.3092L16.0826 8.18179L15.9219 8.25709C15.8509 8.17913 15.7844 8.09794 15.7226 8.01384C15.7226 7.99647 15.7997 7.70689 15.7997 7.70689L15.5876 7.64897L15.4783 7.44047L15.7419 7.38122L15.8704 7.54473L16.0891 7.59105L16.3527 7.55631L16.5905 7.53893L16.5455 7.44047L16.732 7.38122L16.8477 7.52736L17.0149 7.64897H17.1692L17.1756 7.50419L17.0406 7.52736L16.9377 7.44047L16.9892 7.34202L16.7063 7.27832L16.8348 7.14511L17.1177 7.23005L17.182 7.16248L17.0277 6.93632L17.1242 6.87871L17.3106 6.97716L17.3942 7.10168L17.5196 7.1567V7.04666L17.7993 6.99453L17.9471 6.90766L17.9407 6.77445L17.8121 6.78024L17.6385 6.89028L17.3428 6.83236L17.182 6.75708L17.047 6.78024L16.8734 6.76287L16.822 6.61809V6.49066L16.6934 6.45012L16.7127 6.40379Z" fill="#1C6C85"/>
<path d="M14.778 8.11031L14.6758 8.31513H14.5054L14.4577 8.50135L14.6178 8.6317C14.6178 8.6317 14.669 8.86757 14.6758 8.83654C14.6826 8.8055 14.9006 8.7248 14.9006 8.7248C14.9006 8.7248 15.0505 8.64412 15.0505 8.62548C15.0505 8.60687 14.9892 8.35238 14.9892 8.35238L15.1868 8.29651L15.1459 8.11031H14.778Z" fill="#1C6C85"/>
<path d="M15.2245 8.36063L15.1867 8.55048L15.2936 8.69353H15.413L15.6937 8.59104L15.9158 8.39261L15.5513 8.25611L15.2245 8.36063Z" fill="#1C6C85"/>
<path d="M14.605 9.27683L14.3118 9.42591L14.7492 9.56845V9.42264L14.605 9.27683Z" fill="#1C6C85"/>
<path d="M15.0998 7.46143V7.69177L15.0408 7.88463L15.1897 7.96456L15.2983 7.86108L15.3325 7.62593L15.3139 7.46143L15.2177 7.38133L15.0998 7.46143Z" fill="#1C6C85"/>
<path d="M15.0409 6.60435L15.1446 6.68897L15.1748 6.77359L15.0409 6.75569V6.83153L15.3778 6.87595L15.4771 7.06749L15.5786 7.08962L15.6241 6.84699L15.2827 6.55098L15.0668 6.50639L15.0409 6.60435Z" fill="#1C6C85"/>
<path d="M15.6602 6.91008L15.7414 7.02674L15.6241 7.09477L15.7414 7.23572C15.8499 7.21422 15.9568 7.18459 16.0615 7.14703C16.048 7.13366 15.9488 6.93888 15.9488 6.93888L15.7729 6.7983L15.6602 6.91008Z" fill="#1C6C85"/>
<path d="M16.4696 6.36056L16.7346 6.74559L16.9364 6.89213L16.9071 7.02614L16.8061 7.13812L16.5706 7.21445L16.4065 7.23541L16.15 6.95883L16.3812 6.92151L16.4192 6.81687L16.2424 6.83768L16.0616 6.79806V6.57824L16.3014 6.5741L16.2719 6.43169L16.4696 6.36056Z" fill="#1C6C85"/>
<path d="M15.4876 7.81852L15.3325 7.90337L15.4101 8.03583C15.4101 8.03583 15.5869 8.13517 15.5931 8.10413C15.5993 8.07307 15.6241 7.90337 15.6241 7.90337L15.4876 7.81852Z" fill="#1C6C85"/>
<path d="M14.1899 8.11033L14.0202 8.00001L14.2434 7.96452L14.4576 8.01999L14.1899 8.11033Z" fill="#1C6C85"/>
<path d="M14.0202 6.64466L14.0835 6.79798C14.158 6.79674 14.2323 6.78996 14.3061 6.77769C14.308 6.76642 14.4576 6.45526 14.4576 6.45526L14.3061 6.36056L14.0835 6.4485L14.0202 6.64466Z" fill="#1C6C85"/>
<path d="M15.6401 10.589C15.6116 10.6062 15.3325 11.0064 15.3325 11.0064L15.4274 11.0469V11.1722L15.5831 11.0808L15.7122 10.9607L15.7882 11.0236L15.885 11.1265L16.0616 11.1093L15.9135 10.8806V10.7777L15.6401 10.589Z" fill="#1C6C85"/>
<path d="M16.7907 10.2731L16.815 10.1759L16.9933 10.1516L17.0824 10.1981L17.0054 10.2576L16.8759 10.2974L16.7907 10.2731Z" fill="#1C6C85"/>
<path d="M19.2109 7.48539L18.9099 7.58661L18.4975 7.61039L18.2751 7.67593L18.3339 7.78904L18.4975 7.93187H18.7429L18.8639 8.00321H18.635L18.4714 8.03584L18.2488 7.9774L18.3339 8.09747L18.4975 8.16983L18.6873 8.17563L18.6415 8.21753H18.3993L18.3601 8.31077L18.4583 8.34253L18.5564 8.5032H18.7298L18.9622 8.43765L19.165 8.51407L19.368 8.66981L19.4203 8.97331L19.5447 9.04465L19.6362 9.32249V9.52086L19.5316 9.61598L19.5185 9.78274L19.6362 9.81246L19.7214 9.63991L19.8392 9.81246L19.8784 9.99691L19.9307 10.2172L19.7933 10.4234L19.597 10.6338L19.453 10.967L19.4791 11.3002L19.5251 11.6812L19.597 11.9787L19.8129 12.2466H20.029L20.1272 12.4251L20.3562 12.4847V12.3715L20.6048 12.0144L20.8535 11.6158L20.9779 11.3836L21.292 11.3242L21.6192 11.2646L21.8811 10.9848L22.0643 10.842H22.3784L22.7645 10.7408L23.1311 10.4731L22.8562 10.4234L22.5747 10.3301L22.7056 10.2172L22.9871 10.1596L23.0525 10.3242L23.3404 10.3778V10.1934L23.2685 10.0088L22.9544 9.8957L22.7908 9.66369L23.0002 9.72909L23.0328 9.55653L23.2685 9.66369L23.5302 9.69341L23.5957 9.58828L23.3797 9.49113L23.5302 9.36019L23.6742 9.19937L23.6415 9.05669L23.4517 8.90777L23.5827 8.83048L23.8902 8.94358V8.76493L23.8182 8.77102L23.7397 8.80075L23.6153 8.71737L23.6611 8.6221L23.7789 8.66386V8.5844L23.6415 8.5032L23.6546 8.31077L23.8182 8.17563H23.9622L23.8968 7.9774L24.1848 7.89605L24.3221 7.78295L24.5185 7.73147L24.4007 7.63431L24.0342 7.61633L23.9687 7.73147L23.6807 7.62228L23.55 7.81876L23.2947 7.93781L23.419 7.69971L23.5957 7.59255L23.4452 7.45436L23.3601 7.48539L23.3274 7.61633L23.0918 7.6581L22.9544 7.73147L22.9445 7.661L23.1049 7.57167L23.1277 7.4735L22.8267 7.54789L22.5028 7.58661L22.4111 7.64316L22.3915 7.57167L22.5812 7.49148L22.5519 7.32472L22.9249 7.41695L23.4256 7.3546L23.2554 7.28615L23.2751 7.14912L23.1081 7.06284L22.3555 6.99715L22.1918 6.94394L22.097 7.01528L21.9498 6.99715L21.8549 7.03312L21.9367 7.17L21.5669 7.07183V6.95873L21.364 6.99715L21.2659 7.12244L21.4556 7.17899L21.5047 7.23555L21.3019 7.25933L21.2952 7.38128L21.1742 7.34256L21.0498 7.19088L20.9092 7.17595L20.7848 7.06879L20.6473 7.13433L20.7325 7.30399L20.5001 7.22061L20.3562 7.28021L20.2579 7.06284L19.7933 7.05095L19.5282 7.10156L19.4825 7.27122L19.2795 7.25933L19.0963 7.27122L18.8968 7.34851L18.9491 7.45436L19.2109 7.48539Z" fill="#1C6C85"/>
<path d="M24.4818 13.5804L24.7423 13.5051L24.8102 13.6559L24.7536 14.0141L24.6064 14.2028L24.3629 14.2341L24.227 14.1649L24.3968 13.8695L24.2722 13.744L24.3685 13.6559L24.4818 13.7375V13.5804Z" fill="#1C6C85"/>
<path d="M35.8915 6.55222L36.0121 6.65636L36.0474 6.91047L36.1279 6.94381L36.2082 6.83541L36.4747 6.74801V6.60216L36.2233 6.50639H35.9115L35.8915 6.55222Z" fill="#1C6C85"/>
<path d="M35.2167 6.38141L34.9433 6.53549L34.8708 6.73967L34.9605 6.79798L35.6096 6.77712L35.8914 6.72292L35.823 6.41887L35.6715 6.38141L35.49 6.50641L35.4472 6.36056L35.2167 6.38141Z" fill="#1C6C85"/>
<path d="M40.5606 5.96229L40.6824 6.14024L40.3939 6.09744L40.2659 6.22549V6.4743L40.6376 6.65225L40.7594 6.44589L40.9196 6.30727V6.0406L41.1118 6.22549L41.3747 6.10454L41.8041 6.09033L42.0156 5.84152L41.8233 5.7774L41.6181 5.87704L41.2721 5.85572L41.0158 5.86283L40.8234 5.95536L40.6568 5.91966L40.5606 5.96229Z" fill="#1C6C85"/>
<path d="M40.995 6.79799L41.1352 6.65218L41.4324 6.7063V6.76885L40.995 6.79799Z" fill="#1C6C85"/>
<path d="M47.0465 7.72204L46.9215 7.64555L47.1371 7.60529L47.1672 7.31142L46.9603 7.21481H46.5679L46.4041 7.23896L46.2661 7.13833L45.9298 7.11014L46.2402 6.84366L46.1152 6.69551L45.809 6.74785L45.5115 6.39762L45.3348 6.36059L45.1493 6.4741L45.2313 6.59487L45.3649 6.65929L45.408 6.82835L45.3434 6.85654L45.0502 6.80421L44.8949 6.69551L44.8691 6.78005L44.4724 6.89679L44.2784 6.98938L44.2352 7.11014L43.9248 6.96089L43.9334 6.76797L43.6359 6.72368L43.4031 6.772L43.1271 6.96089L43.0711 7.06989L42.7089 6.98535L42.4286 6.98938L42.4847 6.88471L42.3165 6.81628L42.1397 6.86459L42.157 7.04574L42.1096 7.17455L41.9888 7.11014L41.9414 6.90887L41.5059 6.93301L41.2213 7.0256L41.161 7.20676L41.286 7.21079L41.3033 7.35972L41.2946 7.50867H41.0575L40.8548 7.48855L40.8505 7.58113L40.9195 7.64958L40.7902 7.62944L40.6479 7.65359L40.4883 7.51271L40.2549 8.51506L40.367 8.65998L40.3282 8.74049L40.104 8.68816L39.5744 8.05616L39.4106 8.0481L39.458 7.98772L39.5701 7.90721L39.6606 7.77034L39.4925 7.69788L39.2381 7.75424L38.9708 7.70191L38.9277 7.81059L38.8759 7.91929L39.0441 7.97967L39.0053 8.00383L39.0396 7.64555L38.7248 7.74618L38.6817 7.64152L38.5006 7.66164L38.1902 7.75826L38.0263 7.69788L37.897 7.74216L37.6814 7.75826L37.6469 7.87097L37.6685 7.93539L37.5348 7.98772L37.3623 8.10043L37.2804 8.20108L37.164 8.24133L37.3063 7.97967L37.634 7.66164L37.8496 7.50867L37.8237 7.28325L37.6555 7.20274L37.8409 7.1665L37.7892 7.0256L37.4788 6.929L37.2589 7.01354L36.9225 7.10209L36.7803 7.12625L36.638 7.09808L36.5819 6.87666L36.4655 6.84848L36.3965 7.0256L36.3405 7.19871L36.4612 7.30338L36.5776 7.26312L36.5431 7.35168H36.3318L36.1507 7.41206L36.3275 7.55698L36.03 7.60529L35.9222 7.53283L35.4695 7.8428L35.2625 7.89916L35.1892 8.04408L35.0685 8.13264L35.1202 8.29768L35.2711 8.41041L35.1547 8.61168L35.103 8.43054L34.9736 8.51506L34.6804 8.5996L34.564 8.68817L34.6244 8.83712L34.7214 8.9599L35.0512 9.02631L35.1676 9.26182L35.1612 9.39466L35.3035 9.56977L35.2129 9.63015L35.0318 9.44296L34.993 9.15917L34.6955 9.05652L34.4303 8.92971L34.3139 8.97801L34.3915 9.15312L34.191 9.10482L34.0229 8.94782L33.9647 8.99612L34.0164 9.06858L33.9194 9.21955L33.9 9.38862L34.0682 9.55165L34.0552 9.69054L34.1199 9.76903L34.1264 9.88376L34.2105 9.95622L34.4433 9.8596L34.6761 9.99246L34.7473 10.1615L35.0318 10.2762L34.9219 10.3125L34.6955 10.234L34.5726 10.0166L34.4303 9.94414L34.3075 10.077L34.3786 10.2762L34.3075 10.4373L34.2105 10.6084L33.803 10.6265L33.9129 10.5238L34.0035 10.5419L34.1264 10.4373L34.1846 10.1796V10.0287L33.9776 9.81733L33.8806 9.47316L33.7124 9.38862L33.7577 9.11085L33.5572 9.03839L33.3309 9.02028L33.2985 9.25577L33.3503 9.43693L33.1691 9.49731L33.1368 9.59392L33.2597 9.67846L33.2209 9.79319L33.2468 9.93811L33.3891 9.93206L33.5507 10.083L33.609 10.2823L33.3309 10.1011L33.1304 10.1072L32.9105 9.98038L32.807 10.0166L32.5677 10.0287L32.1279 9.88376L31.798 9.67242L31.8368 9.35239L32.0179 8.94179L32.3995 8.62174L32.7229 8.41644L32.8846 8.35002L32.904 8.10245L32.7035 8.13264L32.6582 8.25944L32.2055 8.42852L31.8886 8.62779L31.798 8.77874L31.6881 8.79082L31.701 8.86328L31.7527 8.91763L31.6557 9.10482L31.5458 9.34635L31.5717 9.55769L31.3776 9.62411L31.4488 9.8113L31.6557 9.82338L31.7269 9.90792L31.9921 9.91395L32.5418 10.0951L32.6065 10.2944L32.4642 10.2823L32.2249 10.3185L31.9597 10.4816L31.8239 10.5299L31.9338 10.24L31.811 10.2944L31.7204 10.4373L31.3776 10.5601L31.2548 10.7654V10.8922L31.0413 10.8559L30.912 10.7593L31.009 10.6446L31.0995 10.6989L31.0413 10.5299L30.8279 10.5178L30.6921 10.5057L30.7244 10.6627L30.8537 10.862L30.8861 10.9948L30.9184 11.1156L30.6791 10.9948H30.6145L30.5563 11.1035L30.4139 11.2122L30.5368 11.3632L30.3428 11.4477L30.1553 11.345L30.0259 11.3632L30.2199 11.5141L30.2911 11.6047L30.0906 11.659L29.8319 11.5081L29.7801 11.2605L29.5796 11.1397L29.3791 10.9465L29.5602 10.9828L29.7866 11.0733L30.2135 11.1699L30.4528 11.0673L30.4851 10.8801L30.2975 10.6929L29.7931 10.4755L29.515 10.4997L29.3597 10.3608L29.1851 10.4373L28.7712 10.1736L28.409 10.2702L28.3314 10.4373L28.2279 10.2762L28.0985 10.3004L27.9692 10.4755L27.717 10.5419L27.5359 10.7472L27.3672 11.0854L27.1608 11.5141L26.3846 12.0938L26.2941 12.5286L26.3976 12.9754L26.6563 13.0599L27.0831 12.7218L27.1608 13.0599L27.3672 13.4343L27.1284 13.5974L26.9861 13.0479L26.8306 13.1566L26.8568 13.3196L26.6821 13.4162L26.7209 13.6396L26.8306 13.8087L26.5528 13.8932L26.2941 14.0865L26.1971 14.3401L25.6797 14.7144L25.4727 14.5695L25.8414 14.3763L25.8672 14.1227L25.6538 13.9113L25.2916 13.4404L25.4339 13.2049L25.2269 13.0297L25.2981 12.8727L25.0329 12.9452L24.8842 13.1143V13.38L25.02 13.6215L25.214 13.6577L25.1752 13.9415L25.0652 14.0683L24.9424 14.2616L25.2205 14.322L24.9941 14.4246L25.0264 14.5152L25.2787 14.491L25.3886 14.6299L25.4339 14.7507L25.3628 14.805L25.1299 14.7628L25.0717 14.8835L25.1752 14.956L25.3886 15.0526L25.5826 15.3122V15.4511L25.4404 15.7651H24.8195L24.6125 15.6927L24.3991 15.7953V16.1153L24.3473 16.4716V16.7675L24.4185 16.8641L24.6319 16.8279L24.8259 16.9607L24.7677 17.1781L24.5931 17.3472L24.2697 17.5525L24.218 17.8906V18.0657L23.9528 18.2167L23.7394 18.259L23.6488 18.4341L23.4807 18.573V18.73L23.3125 18.8568L23.2414 19.056L23.0926 19.207L23.1314 19.3519L23.2543 19.4123L23.1832 19.527L23.2673 19.7384L23.2155 19.8954L23.2026 20.0825L23.0603 20.1792L23.1379 20.3241L23.1638 20.5656L23.3384 20.6441L23.6488 21.0668L23.7652 21.3385H23.9463L24.4767 21.7491H24.6578L24.9682 21.5861L25.2137 21.6163L25.4727 21.6827L25.7314 21.5499L26.2941 21.417L26.5011 21.5921L26.5916 21.7069L26.9732 21.6827L27.1543 21.7914L27.206 21.9907L27.0379 22.4858L27.0637 22.6911L27.3672 22.9145L27.4906 23.15L27.6199 23.2587L27.6976 23.5365L27.6394 23.6995L27.7946 23.9652L27.7493 24.1343L27.5035 24.4664L27.4389 24.8347L27.4583 25.0823L27.6264 25.2333L27.6587 25.4023L27.7493 25.5291L27.8398 25.982L27.9239 26.2537V26.453L28.0662 26.5919L28.1632 26.924L28.312 27.0448V27.1836L28.2538 27.2622L28.312 27.4071V27.5037L28.6289 27.6486L28.7841 27.552L29.0428 27.5158L29.515 27.4795L29.806 27.2682L30.1423 26.9904L30.3105 26.7066L30.4916 26.5677L30.5239 26.2175L30.8732 26.0484L30.9831 25.7284L30.899 25.3721L31.0931 25.1004L31.3841 24.8649L31.6816 24.7804L31.8627 24.5811L31.811 24.4724L31.8627 24.2369V23.9109L31.6881 23.5908L31.7139 23.3251L31.6493 23.1802L31.7786 22.9387L31.9727 22.5945L32.1085 22.5643L32.212 22.3832L32.9816 21.725L33.2468 21.3627V21.1695L33.4149 20.8917L33.4602 20.6079L33.3761 20.5415L33.098 20.6441L32.8781 20.6501L32.794 20.7347L32.6388 20.7407L32.4771 20.8192L32.309 20.7709L32.199 20.5898L32.2572 20.4871L32.1214 20.3724L31.6557 20.0584L31.5005 19.7082L31.3065 19.5814L31.203 19.0983L30.9184 18.8024L30.9896 18.73C30.9896 18.73 30.6921 18.4461 30.6727 18.4461C30.6533 18.4461 30.608 18.2952 30.608 18.2952L30.4786 18.2046L30.3363 17.8725L30.4139 17.8061L30.5239 17.9993L30.6015 18.1623L30.705 18.2892L30.7115 18.0355L30.7567 17.951L30.7891 18.1805L30.9249 18.265L31.0607 18.5005L31.1965 18.6092L31.2483 18.736L31.4358 18.8145L31.5846 19.2251L31.6105 19.2976L31.8239 19.3579L32.1537 19.9195L32.1343 20.0825L32.2313 20.2275L32.2378 20.312L32.3413 20.4328L32.4965 20.4388L32.6776 20.3422L33.1239 20.2094L33.2338 20.1007L33.6025 20.0463L33.7124 19.8531L34.0358 19.7806V19.6478L34.2105 19.6236V19.5029L34.3527 19.4485L34.398 19.2432L34.5015 19.2553V19.1466L34.6179 19.0621V18.8507L34.3463 18.6514L34.107 18.6333L33.997 18.265L33.8418 18.4401L33.7448 18.6454C33.6234 18.6729 33.5003 18.6931 33.3761 18.7058C33.3567 18.6937 33.0915 18.3737 33.0915 18.3737L32.8329 18.0114L32.7035 17.8423L32.9169 17.7034L33.0463 17.7457L33.2015 18.0235C33.2015 18.0235 33.2662 18.1442 33.2597 18.1261C33.2533 18.108 33.3696 18.0657 33.3696 18.0657L33.6478 18.2529L33.803 18.2227L34.0358 18.1322L34.1199 18.2288L34.1652 18.3314C34.1652 18.3314 34.4821 18.4341 34.5015 18.4341C34.5209 18.4341 35.0189 18.3918 35.0189 18.3918L35.4846 18.3556L35.5751 18.4763L35.7368 18.5488L35.7886 18.6152L35.905 18.6092V18.7058L36.1443 18.73L35.9955 18.8688L36.1443 18.9715L36.2219 19.0862L36.4418 19.05L36.5711 18.8024L36.6035 18.9956L36.5517 19.2855L36.9657 20.0825L37.0433 20.1792L37.1209 20.5052L37.2631 20.6441L37.3084 20.7709V20.8675L37.4895 21.0849L37.6254 21.0366V20.9038L37.8905 20.6864L37.8194 20.5294L37.8905 20.318L37.8582 20.1248L37.8905 19.7263L38.0845 19.684L38.2139 19.4908L38.4791 19.1889L38.7313 18.9836L38.6925 18.8749L38.8413 18.7239L39.0094 18.8266L39.2811 18.73L39.4363 18.8205V18.9654L39.7273 19.2251L39.8761 19.3942V19.6538L39.9472 19.7685L40.18 19.6236L40.2124 19.4908L40.3288 19.6357L40.4064 19.9799L40.5423 20.1792L40.5746 20.2395L40.5034 20.3241L40.5746 20.469V21.0004L40.7169 21.0426L40.9497 21.3687V21.6102L41.0402 21.8639L41.286 22.045L41.4477 22.1416L41.5189 22.0812L41.3895 21.7733L41.383 21.5016L41.1825 21.3026L40.9432 21.0487L40.7686 20.7226L40.7492 20.5052L40.7945 20.2878L40.7492 20.1188L40.8333 20.004L40.9044 20.0765L40.9368 20.2094C40.9368 20.2094 41.079 20.2395 41.079 20.2214C41.079 20.2033 41.2472 20.3362 41.2472 20.3362L41.286 20.4932L41.4218 20.5475L41.5189 20.6501V20.8192L41.6029 20.8977L41.8034 20.7468L41.8487 20.6018L42.0427 20.5415L42.1915 20.4388V20.1429L42.1333 19.7927L41.8552 19.527L41.7323 19.4847L41.6417 19.3277L41.493 19.1466L41.5124 18.9292L41.6547 18.8507L41.7387 18.6756L41.9845 18.6213L42.0427 18.7481L42.0621 18.9654L41.9845 19.0802L42.0621 19.2432L42.2238 19.2855L42.3079 19.0621L42.2173 18.9654L42.1397 18.7964L42.2626 18.6152L42.877 18.3858L43.1551 18.1201L43.388 17.6672V17.4619L43.5238 17.2747V16.9788L43.3298 16.9728L43.4203 16.7494L43.2457 16.5501L43.1099 16.4716C43.1099 16.4716 42.8512 16.2059 42.8382 16.1818C42.8264 16.1078 42.8199 16.0331 42.8188 15.9583L42.9741 15.7591L43.1358 15.7168L43.1551 15.5779L42.9482 15.6081L42.8253 15.5598L42.7606 15.7047L42.5019 15.6806L42.4243 15.5719L42.282 15.4028L42.3402 15.3122L42.4696 15.3666L42.5019 15.2579L42.5796 15.1915L42.6895 15.0103L42.8447 14.962L42.8253 15.0768L42.7865 15.2035L42.89 15.3243L42.9999 15.2035L43.2134 15.1432L43.3815 15.1734L43.3686 15.2941L43.388 15.4632L43.7049 15.59V15.7047L43.7372 15.8738L43.7761 16.055L43.8731 16.1395L44.0994 16.0489L44.2094 15.8497V15.6081L43.8989 15.3304L43.7114 15.1734L43.692 15.0345L43.8342 14.8896L43.8213 14.7386L43.8537 14.5514L43.9313 14.485L43.8795 14.4246L43.9377 14.3159L44.0542 14.4246L44.3064 14.3642L44.4487 14.0019L44.4939 13.5974V13.4343L44.6104 13.0841L44.3581 12.4319L44.3646 12.1844L44.2158 12.0878L44.1512 11.9126L43.8731 11.7255L43.692 11.7315L43.7308 11.8643L43.6079 11.8945L43.3686 11.7436L43.1551 11.7677L43.2975 11.5685L43.388 11.345L43.485 11.0376L43.5691 10.4373L43.8342 10.3185H44.177L44.3646 10.2521L44.4163 10.083H44.6556L44.8238 10.2098L45.1084 10.083L45.2765 9.95622L45.0696 9.92603V9.68449L45.089 9.38258C45.089 9.38258 45.3994 9.04444 45.3994 9.06255C45.3994 9.08066 45.477 9.33428 45.477 9.33428L45.6711 9.46108L45.7487 9.35239V9.1652L45.8608 9.15917V9.03437L45.753 8.94983L45.8134 8.80893L46.0376 8.78479L45.9298 8.9136L46.0074 9.12293L46.0376 9.3081L45.878 9.41277L45.8522 9.91597L45.6754 10.3024L45.5805 10.3386L45.7142 10.5077L45.6538 10.6446L45.7056 10.866L46.1066 11.3692L46.4342 11.8603L46.5377 11.965L46.555 11.7516L46.5981 11.5946L46.4773 11.3773L46.5291 11.2645L46.5075 11.0592L46.6369 11.0376L46.6973 10.9465L46.5636 10.6043V10.4675L46.68 10.5882L46.7361 10.5319L46.6369 10.391C46.6369 10.391 46.5722 10.3548 46.5593 10.3507C46.5187 10.3046 46.4813 10.2562 46.4472 10.2058L46.3868 10.081L46.279 10.1535L46.2273 10.0528L46.2359 9.86767L46.1152 9.50535L46.2402 9.44096L46.3652 9.53354L46.417 9.24772L46.4903 9.19942L46.5334 9.45705L46.6197 9.34031L46.6455 9.20747L46.8352 9.17124L47.0293 9.2759V9.12293L47.3181 8.39833L47.5208 8.2051L47.7019 8.24535V8.08434L47.4691 8.01992L47.3613 7.97564L47.1974 7.73813H46.943L46.1367 8.18497L46.154 7.92734L46.0203 7.75021L46.0893 7.60529L46.154 7.77839L46.3049 7.87904L46.4817 7.77437L46.6369 7.90318L46.7921 7.99175L46.8352 7.85891L46.943 7.9837L47.1759 7.99577L47.2104 7.9515L47.0465 7.72204ZM29.0622 12.6674L28.7324 12.6856L28.5772 12.7822L28.6095 12.8909L28.7324 12.909V13.2169L28.6095 13.229L28.5254 13.0237L28.3314 13.2471L28.409 13.5189L28.312 13.6275L28.1438 13.7121L28.0662 13.5611L27.8528 13.6577L27.5553 13.8328L27.4324 13.7906L27.2254 13.7483L27.3225 13.6034L27.51 13.5007L27.717 13.3739L27.8528 13.229L27.8011 12.8848L28.0145 12.7037L27.9951 12.5286L27.7493 12.3957V12.0757C27.8329 12.0032 27.9239 11.9385 28.0209 11.8825C28.0403 11.8945 28.1956 11.7315 28.1956 11.7315L28.2279 11.4477L28.409 11.3088H28.5901L28.6224 11.3571L28.6289 11.5322L28.3249 11.8523L28.2732 11.9791L28.3249 12.2448L28.3702 12.4863L28.6095 12.5708L28.9005 12.4319L29.114 12.3897L29.4244 12.5286L29.0622 12.6674Z" fill="#1C6C85"/>
<path d="M33.1951 24.1492L32.8452 24.5313L32.6029 24.751L32.3158 24.7997L32.2439 24.995L32.3067 25.426L32.1005 25.605V26.0034L32.253 26.1905H32.5311L32.7106 25.857L33.1323 25.0112L33.0874 24.8323L33.2669 24.7184V24.45L33.1951 24.1492Z" fill="#1C6C85"/>
<path d="M40.1199 21.3791H40.3771L40.9175 21.938L41.1406 22.0918L41.4237 22.4159L41.5951 22.6751L41.7238 22.7723L41.6809 23.0235L41.6724 23.2746L41.415 23.1855L41.1406 22.9424L40.7803 22.2539L40.6345 21.9947L40.463 21.8569L40.1886 21.5249L40.1199 21.3791Z" fill="#1C6C85"/>
<path d="M41.6979 23.4202L41.578 23.561L42.9623 23.8576L43.0361 23.7464L42.8423 23.6872L42.7132 23.524L42.427 23.4721L42.1224 23.524L41.901 23.4202H41.6979Z" fill="#1C6C85"/>
<path d="M43.3798 21.0872L43.1827 21.4246L43.0035 21.4751L42.8511 21.7535L42.5824 21.8969V22.0994L42.2957 22.1415L42.1612 22.2512L42.2418 22.4284L42.4121 22.8416H42.6271L43.0035 22.9259L43.111 23.1285L43.2544 22.9766L43.4247 22.6055V22.4284L43.6307 22.2596L43.7651 22.209L43.568 21.9981L43.5143 21.5595L43.6307 21.5426L43.7651 21.4076L43.3798 21.0872Z" fill="#1C6C85"/>
<path d="M44.7858 22.1081L44.5462 22.208L44.1379 22.1081L43.9071 22.3309L43.8539 22.5691L43.7651 22.769L43.8184 22.9457L43.8006 23.2301C43.8894 23.3069 43.9338 23.2608 43.9338 23.2608L44.0758 22.9841L44.0314 22.7305L44.1734 22.9303L44.1911 23.1532L44.3687 23.1916L44.484 23.0379L44.3598 22.6913L44.0225 22.4692L44.129 22.2771H44.4308L44.6704 22.2848L44.7858 22.1081Z" fill="#1C6C85"/>
<path d="M43.6656 19.0462L43.6194 19.5924L43.8411 19.8457L44.0352 20.1623L44.1969 20.4711V20.6848L44.3679 21.0648L44.83 21.2333V21.0648L44.9316 20.9935L44.8762 20.6769L44.6821 20.4394L44.6636 20.1397L44.3679 19.8615C44.3679 19.8615 44.0629 19.7428 44.0352 19.7349C43.9935 19.6619 43.9625 19.5848 43.9428 19.5053V19.0462H43.6656Z" fill="#1C6C85"/>
<path d="M45.6607 22.4557L45.9516 22.7048L45.7548 22.8013L45.8575 22.9219L45.9001 23.0906L46.0627 23.0344L46.4305 23.187L46.7557 23.3719V23.8059L47.0635 24.0792L47.4314 24.023L47.3458 23.8862L47.6281 23.8059L47.7308 23.7496L47.9104 23.9667V24.1274L48.0301 24.3445L48.3895 24.4408L48.5519 24.2882L48.2354 24.047L48.1072 23.8059L48.0045 23.5688L48.2525 23.5166L48.6374 23.5327L48.8684 23.2353L48.7059 23.1791L48.5775 23.3719L48.2269 23.4483L47.8505 23.3318L47.7478 23.1147L47.2004 22.8978L46.653 22.5442L46.4818 22.753L46.2765 22.8897L46.114 22.6718L46.1226 22.3995H45.9087L45.6607 22.4557Z" fill="#1C6C85"/>
<path d="M42.4558 26.301L42.3607 26.8164L42.3003 27.1868V27.7425L42.3607 27.9358L42.1794 28.2338L42.0153 28.3626L42.1362 28.5156L42.3607 28.564L42.8099 28.4271L43.2936 28.4915L43.4491 28.2902L43.9069 28.1855L44.0191 28.2741L44.2739 28.1532L44.5978 28.1371L44.8656 28.3546L44.9174 28.6365V28.8458L45.0124 28.9425L45.1161 28.7895L45.4529 28.5398L45.3925 28.7089L45.2284 28.8781L44.9952 29.1035L45.047 29.1841L45.2111 29.1438L45.2888 28.9908L45.4529 28.8378L45.3752 29.0794L45.4011 29.1358L45.4098 29.3532L45.3407 29.5062L45.4529 29.6753L45.7466 29.8122L46.0317 29.78L46.1439 29.9814L46.4203 29.8122L46.5326 29.7478L46.7745 29.7559L47.0423 29.3693L47.1286 29.2082L47.6037 28.7975L48.0615 28.0002L48.1392 27.6378V27.211L47.9665 26.9211L47.9492 26.7117L47.8455 26.5667L47.7851 26.2527L47.5346 25.9949L47.5691 25.7533C47.5663 25.6608 47.5518 25.5689 47.5259 25.4795C47.5236 25.3819 47.5353 25.2844 47.5605 25.1896L47.3532 25.101V24.5212L47.2236 24.4406L47.1286 24.6098L46.9559 25.0849L46.8263 25.5681L46.7313 25.7211L46.5758 25.7292L46.3685 25.5037L46.0662 25.1816L46.1871 24.9158L46.3772 24.7064L46.2735 24.5937L46.1267 24.6581L45.8157 24.5212L45.4184 24.6017C45.4184 24.6017 45.2543 24.8594 45.2457 24.8353C45.237 24.8111 45.1334 24.9722 45.1334 24.9722L45.1938 25.1252L44.8742 25.2138L44.9606 25.0366L44.8224 24.8111L44.6065 24.948L44.3474 25.1574V25.3024L44.2092 25.2782L44.1833 25.5117L44.1228 25.3507L44.0882 25.254L43.9328 25.3909L43.9587 25.6164L43.8291 25.7292L43.6045 25.85L43.3109 25.8419L42.8531 26.0272L42.4558 26.301Z" fill="#1C6C85"/>
<path d="M45.6095 30.273L45.8273 30.3911L46.2439 30.3321L46.0924 30.5091L45.9693 30.7174L45.7043 30.8562L45.6095 30.7938L45.5149 30.641L45.6285 30.5647L45.6474 30.4049L45.6095 30.273Z" fill="#1C6C85"/>
<path d="M50.3759 29.6143L50.4459 29.9964L50.3759 30.2069L50.4109 30.3785L50.2097 30.4408L50.0347 30.628L50.096 30.7449L50.1747 30.8853L50.1484 31.0022L50.4459 30.8307L50.5246 30.6903L50.7083 30.6124L50.9096 30.4252V30.3083C50.9096 30.3083 50.7083 30.3395 50.7083 30.3083C50.7083 30.2771 50.6908 30.012 50.6908 30.012L50.6121 29.9262L50.5421 29.7157L50.4722 29.5442L50.3759 29.6143Z" fill="#1C6C85"/>
<path d="M45.0559 13.6509L45.1766 13.9685L45.0559 14.1476L44.9695 14.286L45.2111 14.4734L45.3146 14.791V15.3365L45.073 15.4832L45.0213 15.7192L44.6762 15.8008L44.5468 15.923L44.4087 16.1184L44.4951 16.2405L44.3483 16.3057L44.4087 16.5091L44.564 16.7129L44.7108 16.5987L44.6934 16.3627L44.9264 16.2486L45.4095 15.9962L45.7374 15.703L45.6251 15.1411L45.651 14.9457L45.4009 14.6362L45.3923 14.457L45.2025 14.3512L45.2629 14.221L45.5734 14.3512L45.5821 14.2698L45.4957 14.1232L45.8064 14.0499V13.6997L45.7028 13.7241L45.5734 13.8545L45.4009 13.8057L45.2025 13.6509H45.0559Z" fill="#1C6C85"/>
<path d="M44.2025 11.6098V11.7574L44.2656 11.8429L44.3051 12.0216L44.4864 12.3167L44.5652 12.4333V12.6274L44.6991 12.8373L44.8646 13.0702L44.8961 13.2878L45.042 13.5053L45.0774 13.3189L44.9197 13.0158L44.7858 12.6818L44.9907 12.7673L44.8173 12.5187L44.5415 12.1381L44.4469 11.8894L44.3051 11.7419L44.2499 11.6098H44.2025Z" fill="#1C6C85"/>
</g>
<mask id="path-3-outside-1_75_20846" maskUnits="userSpaceOnUse" x="6.04492" y="0.118958" width="35" height="37" fill="black">
<rect fill="white" x="6.04492" y="0.118958" width="35" height="37"/>
<path d="M24.2691 36.0639C23.8774 36.2799 23.4025 36.2806 23.0103 36.0657L7.72389 27.6923C7.30522 27.463 7.04492 27.0236 7.04492 26.5463L7.04493 9.06723C7.04493 8.54744 7.35299 8.07708 7.82947 7.86936L23.0644 1.22783C23.3959 1.08334 23.7724 1.08264 24.1044 1.22591L39.3346 7.79833C39.8134 8.00497 40.1235 8.47658 40.1235 8.99812V26.5488C40.1235 27.0248 39.8647 27.4632 39.4478 27.693L24.2691 36.0639ZM7.25956 26.4244C7.2592 26.9026 7.52012 27.3429 7.93982 27.5722L23.0115 35.8058C23.4031 36.0197 23.8768 36.0191 24.2678 35.804L39.2309 27.5736C39.6487 27.3438 39.9081 26.9047 39.9078 26.4278L39.8969 9.12631C39.8966 8.60459 39.586 8.13305 39.1067 7.92682L24.1034 1.47026C23.7721 1.32769 23.3966 1.32839 23.0659 1.47219L8.05853 7.99679C7.58175 8.20408 7.27319 8.67428 7.2728 9.19417L7.25956 26.4244Z"/>
<path d="M12.3803 29.9701C12.345 29.9701 12.3156 29.9455 12.3142 29.914V11.5145C12.3142 11.0144 12.5996 10.5581 13.0494 10.3394L28.0965 3.02137C28.1285 3.00582 28.1689 3.01611 28.1865 3.04443C28.2041 3.07278 28.1924 3.10837 28.1604 3.12395L13.185 10.4071C12.7353 10.6258 12.4498 11.0819 12.4497 11.582L12.4465 29.9092C12.448 29.9415 12.4196 29.9687 12.3831 29.9701C12.3821 29.9701 12.3812 29.9701 12.3803 29.9701Z"/>
<path d="M29.2727 33.131H29.2718C29.2353 33.1305 29.206 33.104 29.2065 33.0716L29.2055 14.4313C29.2055 13.9391 28.9289 13.4887 28.49 13.266L13.4449 5.63318C13.4132 5.61714 13.4022 5.58136 13.4203 5.55331C13.4385 5.52522 13.479 5.51547 13.5107 5.53159L28.6234 13.1986C29.0624 13.4213 29.3389 13.8717 29.3389 14.364V33.0732C29.3384 33.1053 29.3089 33.131 29.2727 33.131Z"/>
<path d="M34.758 30.0378C34.7573 30.0378 34.7566 30.0378 34.7559 30.0377C34.7194 30.0367 34.6907 30.0097 34.6918 29.9774L34.6894 11.5459C34.6893 11.0426 34.4002 10.5841 33.9461 10.367L18.9902 3.21906C18.9581 3.20351 18.9464 3.16796 18.964 3.13961C18.9816 3.11126 19.0218 3.10089 19.0539 3.1164L34.0809 10.2989C34.5351 10.5159 34.8242 10.9745 34.8242 11.4778V29.9811C34.823 30.0127 34.7936 30.0378 34.758 30.0378Z"/>
<path d="M24.2567 29.7089C23.855 29.9385 23.3619 29.9386 22.9601 29.7092L7.18021 20.6981C7.14952 20.6806 7.14074 20.6443 7.16064 20.6172C7.18053 20.5901 7.22155 20.5823 7.2522 20.5999L22.9601 29.5697C23.3618 29.7992 23.855 29.799 24.2566 29.5694L39.9164 20.6172C39.9472 20.5997 39.9882 20.6074 40.008 20.6345C40.0279 20.6616 40.0192 20.6978 39.9885 20.7155L24.2567 29.7089Z"/>
<path d="M23.6103 23.2483C23.5885 23.2603 23.562 23.2603 23.5402 23.2483L7.16058 14.2269C7.12956 14.2098 7.1201 14.1737 7.13944 14.1463C7.15881 14.1189 7.19964 14.1105 7.23068 14.1276L22.9442 22.7821C23.337 22.9984 23.8133 22.9982 24.2059 22.7816L39.8904 14.1277C39.9214 14.1105 39.9623 14.1189 39.9816 14.1463C40.001 14.1737 39.9915 14.2098 39.9605 14.227L23.6103 23.2483Z"/>
<path d="M17.8382 33.0612C17.8023 33.0612 17.7728 33.0359 17.772 33.0041L17.7702 14.3871C17.7701 13.894 18.0477 13.4429 18.4878 13.2206L33.7955 5.48946C33.8272 5.47326 33.8677 5.48309 33.8859 5.51106C33.9041 5.53911 33.8931 5.57489 33.8614 5.59097L18.622 13.2874C18.1819 13.5097 17.9044 13.9608 17.9044 14.4539V33.0013C17.9053 33.0336 17.8763 33.0604 17.8398 33.0612H17.8382Z"/>
<path d="M23.6514 36.0056C23.5907 36.0056 23.5413 35.9623 23.541 35.9086L23.4345 17.1294C23.4317 16.6326 23.7109 16.1771 24.155 15.9542L39.5407 8.22968C39.5929 8.20201 39.6607 8.21699 39.6921 8.26318C39.7234 8.3094 39.7065 8.3693 39.6542 8.39705L24.3766 16.0644C23.9324 16.2873 23.6531 16.7428 23.656 17.2397L23.7617 35.9075C23.7621 35.9614 23.7129 36.0053 23.6519 36.0056H23.6514Z"/>
<path d="M23.5406 16.5714C23.5213 16.5714 23.5018 16.5669 23.484 16.5575L7.40445 8.50972C7.35216 8.48206 7.33513 8.42215 7.36643 8.37589C7.39771 8.32966 7.46546 8.31465 7.51779 8.34228L23.5974 16.3901C23.6497 16.4178 23.6667 16.4777 23.6354 16.5239C23.6147 16.5544 23.5781 16.5714 23.5406 16.5714Z"/>
</mask>
<path d="M24.2691 36.0639C23.8774 36.2799 23.4025 36.2806 23.0103 36.0657L7.72389 27.6923C7.30522 27.463 7.04492 27.0236 7.04492 26.5463L7.04493 9.06723C7.04493 8.54744 7.35299 8.07708 7.82947 7.86936L23.0644 1.22783C23.3959 1.08334 23.7724 1.08264 24.1044 1.22591L39.3346 7.79833C39.8134 8.00497 40.1235 8.47658 40.1235 8.99812V26.5488C40.1235 27.0248 39.8647 27.4632 39.4478 27.693L24.2691 36.0639ZM7.25956 26.4244C7.2592 26.9026 7.52012 27.3429 7.93982 27.5722L23.0115 35.8058C23.4031 36.0197 23.8768 36.0191 24.2678 35.804L39.2309 27.5736C39.6487 27.3438 39.9081 26.9047 39.9078 26.4278L39.8969 9.12631C39.8966 8.60459 39.586 8.13305 39.1067 7.92682L24.1034 1.47026C23.7721 1.32769 23.3966 1.32839 23.0659 1.47219L8.05853 7.99679C7.58175 8.20408 7.27319 8.67428 7.2728 9.19417L7.25956 26.4244Z" fill="#1C6C85"/>
<path d="M12.3803 29.9701C12.345 29.9701 12.3156 29.9455 12.3142 29.914V11.5145C12.3142 11.0144 12.5996 10.5581 13.0494 10.3394L28.0965 3.02137C28.1285 3.00582 28.1689 3.01611 28.1865 3.04443C28.2041 3.07278 28.1924 3.10837 28.1604 3.12395L13.185 10.4071C12.7353 10.6258 12.4498 11.0819 12.4497 11.582L12.4465 29.9092C12.448 29.9415 12.4196 29.9687 12.3831 29.9701C12.3821 29.9701 12.3812 29.9701 12.3803 29.9701Z" fill="#1C6C85"/>
<path d="M29.2727 33.131H29.2718C29.2353 33.1305 29.206 33.104 29.2065 33.0716L29.2055 14.4313C29.2055 13.9391 28.9289 13.4887 28.49 13.266L13.4449 5.63318C13.4132 5.61714 13.4022 5.58136 13.4203 5.55331C13.4385 5.52522 13.479 5.51547 13.5107 5.53159L28.6234 13.1986C29.0624 13.4213 29.3389 13.8717 29.3389 14.364V33.0732C29.3384 33.1053 29.3089 33.131 29.2727 33.131Z" fill="#1C6C85"/>
<path d="M34.758 30.0378C34.7573 30.0378 34.7566 30.0378 34.7559 30.0377C34.7194 30.0367 34.6907 30.0097 34.6918 29.9774L34.6894 11.5459C34.6893 11.0426 34.4002 10.5841 33.9461 10.367L18.9902 3.21906C18.9581 3.20351 18.9464 3.16796 18.964 3.13961C18.9816 3.11126 19.0218 3.10089 19.0539 3.1164L34.0809 10.2989C34.5351 10.5159 34.8242 10.9745 34.8242 11.4778V29.9811C34.823 30.0127 34.7936 30.0378 34.758 30.0378Z" fill="#1C6C85"/>
<path d="M24.2567 29.7089C23.855 29.9385 23.3619 29.9386 22.9601 29.7092L7.18021 20.6981C7.14952 20.6806 7.14074 20.6443 7.16064 20.6172C7.18053 20.5901 7.22155 20.5823 7.2522 20.5999L22.9601 29.5697C23.3618 29.7992 23.855 29.799 24.2566 29.5694L39.9164 20.6172C39.9472 20.5997 39.9882 20.6074 40.008 20.6345C40.0279 20.6616 40.0192 20.6978 39.9885 20.7155L24.2567 29.7089Z" fill="#1C6C85"/>
<path d="M23.6103 23.2483C23.5885 23.2603 23.562 23.2603 23.5402 23.2483L7.16058 14.2269C7.12956 14.2098 7.1201 14.1737 7.13944 14.1463C7.15881 14.1189 7.19964 14.1105 7.23068 14.1276L22.9442 22.7821C23.337 22.9984 23.8133 22.9982 24.2059 22.7816L39.8904 14.1277C39.9214 14.1105 39.9623 14.1189 39.9816 14.1463C40.001 14.1737 39.9915 14.2098 39.9605 14.227L23.6103 23.2483Z" fill="#1C6C85"/>
<path d="M17.8382 33.0612C17.8023 33.0612 17.7728 33.0359 17.772 33.0041L17.7702 14.3871C17.7701 13.894 18.0477 13.4429 18.4878 13.2206L33.7955 5.48946C33.8272 5.47326 33.8677 5.48309 33.8859 5.51106C33.9041 5.53911 33.8931 5.57489 33.8614 5.59097L18.622 13.2874C18.1819 13.5097 17.9044 13.9608 17.9044 14.4539V33.0013C17.9053 33.0336 17.8763 33.0604 17.8398 33.0612H17.8382Z" fill="#1C6C85"/>
<path d="M23.6514 36.0056C23.5907 36.0056 23.5413 35.9623 23.541 35.9086L23.4345 17.1294C23.4317 16.6326 23.7109 16.1771 24.155 15.9542L39.5407 8.22968C39.5929 8.20201 39.6607 8.21699 39.6921 8.26318C39.7234 8.3094 39.7065 8.3693 39.6542 8.39705L24.3766 16.0644C23.9324 16.2873 23.6531 16.7428 23.656 17.2397L23.7617 35.9075C23.7621 35.9614 23.7129 36.0053 23.6519 36.0056H23.6514Z" fill="#1C6C85"/>
<path d="M23.5406 16.5714C23.5213 16.5714 23.5018 16.5669 23.484 16.5575L7.40445 8.50972C7.35216 8.48206 7.33513 8.42215 7.36643 8.37589C7.39771 8.32966 7.46546 8.31465 7.51779 8.34228L23.5974 16.3901C23.6497 16.4178 23.6667 16.4777 23.6354 16.5239C23.6147 16.5544 23.5781 16.5714 23.5406 16.5714Z" fill="#1C6C85"/>
<path d="M24.2691 36.0639C23.8774 36.2799 23.4025 36.2806 23.0103 36.0657L7.72389 27.6923C7.30522 27.463 7.04492 27.0236 7.04492 26.5463L7.04493 9.06723C7.04493 8.54744 7.35299 8.07708 7.82947 7.86936L23.0644 1.22783C23.3959 1.08334 23.7724 1.08264 24.1044 1.22591L39.3346 7.79833C39.8134 8.00497 40.1235 8.47658 40.1235 8.99812V26.5488C40.1235 27.0248 39.8647 27.4632 39.4478 27.693L24.2691 36.0639ZM7.25956 26.4244C7.2592 26.9026 7.52012 27.3429 7.93982 27.5722L23.0115 35.8058C23.4031 36.0197 23.8768 36.0191 24.2678 35.804L39.2309 27.5736C39.6487 27.3438 39.9081 26.9047 39.9078 26.4278L39.8969 9.12631C39.8966 8.60459 39.586 8.13305 39.1067 7.92682L24.1034 1.47026C23.7721 1.32769 23.3966 1.32839 23.0659 1.47219L8.05853 7.99679C7.58175 8.20408 7.27319 8.67428 7.2728 9.19417L7.25956 26.4244Z" stroke="#1C6C85" stroke-width="0.653373" mask="url(#path-3-outside-1_75_20846)"/>
<path d="M12.3803 29.9701C12.345 29.9701 12.3156 29.9455 12.3142 29.914V11.5145C12.3142 11.0144 12.5996 10.5581 13.0494 10.3394L28.0965 3.02137C28.1285 3.00582 28.1689 3.01611 28.1865 3.04443C28.2041 3.07278 28.1924 3.10837 28.1604 3.12395L13.185 10.4071C12.7353 10.6258 12.4498 11.0819 12.4497 11.582L12.4465 29.9092C12.448 29.9415 12.4196 29.9687 12.3831 29.9701C12.3821 29.9701 12.3812 29.9701 12.3803 29.9701Z" stroke="#1C6C85" stroke-width="0.653373" mask="url(#path-3-outside-1_75_20846)"/>
<path d="M29.2727 33.131H29.2718C29.2353 33.1305 29.206 33.104 29.2065 33.0716L29.2055 14.4313C29.2055 13.9391 28.9289 13.4887 28.49 13.266L13.4449 5.63318C13.4132 5.61714 13.4022 5.58136 13.4203 5.55331C13.4385 5.52522 13.479 5.51547 13.5107 5.53159L28.6234 13.1986C29.0624 13.4213 29.3389 13.8717 29.3389 14.364V33.0732C29.3384 33.1053 29.3089 33.131 29.2727 33.131Z" stroke="#1C6C85" stroke-width="0.653373" mask="url(#path-3-outside-1_75_20846)"/>
<path d="M34.758 30.0378C34.7573 30.0378 34.7566 30.0378 34.7559 30.0377C34.7194 30.0367 34.6907 30.0097 34.6918 29.9774L34.6894 11.5459C34.6893 11.0426 34.4002 10.5841 33.9461 10.367L18.9902 3.21906C18.9581 3.20351 18.9464 3.16796 18.964 3.13961C18.9816 3.11126 19.0218 3.10089 19.0539 3.1164L34.0809 10.2989C34.5351 10.5159 34.8242 10.9745 34.8242 11.4778V29.9811C34.823 30.0127 34.7936 30.0378 34.758 30.0378Z" stroke="#1C6C85" stroke-width="0.653373" mask="url(#path-3-outside-1_75_20846)"/>
<path d="M24.2567 29.7089C23.855 29.9385 23.3619 29.9386 22.9601 29.7092L7.18021 20.6981C7.14952 20.6806 7.14074 20.6443 7.16064 20.6172C7.18053 20.5901 7.22155 20.5823 7.2522 20.5999L22.9601 29.5697C23.3618 29.7992 23.855 29.799 24.2566 29.5694L39.9164 20.6172C39.9472 20.5997 39.9882 20.6074 40.008 20.6345C40.0279 20.6616 40.0192 20.6978 39.9885 20.7155L24.2567 29.7089Z" stroke="#1C6C85" stroke-width="0.653373" mask="url(#path-3-outside-1_75_20846)"/>
<path d="M23.6103 23.2483C23.5885 23.2603 23.562 23.2603 23.5402 23.2483L7.16058 14.2269C7.12956 14.2098 7.1201 14.1737 7.13944 14.1463C7.15881 14.1189 7.19964 14.1105 7.23068 14.1276L22.9442 22.7821C23.337 22.9984 23.8133 22.9982 24.2059 22.7816L39.8904 14.1277C39.9214 14.1105 39.9623 14.1189 39.9816 14.1463C40.001 14.1737 39.9915 14.2098 39.9605 14.227L23.6103 23.2483Z" stroke="#1C6C85" stroke-width="0.653373" mask="url(#path-3-outside-1_75_20846)"/>
<path d="M17.8382 33.0612C17.8023 33.0612 17.7728 33.0359 17.772 33.0041L17.7702 14.3871C17.7701 13.894 18.0477 13.4429 18.4878 13.2206L33.7955 5.48946C33.8272 5.47326 33.8677 5.48309 33.8859 5.51106C33.9041 5.53911 33.8931 5.57489 33.8614 5.59097L18.622 13.2874C18.1819 13.5097 17.9044 13.9608 17.9044 14.4539V33.0013C17.9053 33.0336 17.8763 33.0604 17.8398 33.0612H17.8382Z" stroke="#1C6C85" stroke-width="0.653373" mask="url(#path-3-outside-1_75_20846)"/>
<path d="M23.6514 36.0056C23.5907 36.0056 23.5413 35.9623 23.541 35.9086L23.4345 17.1294C23.4317 16.6326 23.7109 16.1771 24.155 15.9542L39.5407 8.22968C39.5929 8.20201 39.6607 8.21699 39.6921 8.26318C39.7234 8.3094 39.7065 8.3693 39.6542 8.39705L24.3766 16.0644C23.9324 16.2873 23.6531 16.7428 23.656 17.2397L23.7617 35.9075C23.7621 35.9614 23.7129 36.0053 23.6519 36.0056H23.6514Z" stroke="#1C6C85" stroke-width="0.653373" mask="url(#path-3-outside-1_75_20846)"/>
<path d="M23.5406 16.5714C23.5213 16.5714 23.5018 16.5669 23.484 16.5575L7.40445 8.50972C7.35216 8.48206 7.33513 8.42215 7.36643 8.37589C7.39771 8.32966 7.46546 8.31465 7.51779 8.34228L23.5974 16.3901C23.6497 16.4178 23.6667 16.4777 23.6354 16.5239C23.6147 16.5544 23.5781 16.5714 23.5406 16.5714Z" stroke="#1C6C85" stroke-width="0.653373" mask="url(#path-3-outside-1_75_20846)"/>
</g>
<defs>
<clipPath id="clip0_75_20846">
<rect width="36.0988" height="36.0988" fill="white" transform="translate(5.46289 0.713745)"/>
</clipPath>
<clipPath id="clip1_75_20846">
<rect width="33.1587" height="29.8918" fill="white" transform="translate(7.09631 5.12402)"/>
</clipPath>
</defs>
</svg>
