<svg width="154" height="32" viewBox="0 0 154 32" fill="none" xmlns="http://www.w3.org/2000/svg">
<path d="M55.4575 23.5854C54.2837 23.5854 53.2962 23.3258 52.4948 22.8066C51.6935 22.2762 51.1292 21.5595 50.8019 20.6566L52.7996 19.4885C53.2623 20.6961 54.1708 21.2999 55.5252 21.2999C56.1798 21.2999 56.6595 21.1814 56.9642 20.9444C57.2689 20.7074 57.4213 20.4083 57.4213 20.0472C57.4213 19.6296 57.2351 19.3079 56.8626 19.0822C56.4902 18.8452 55.8243 18.5912 54.865 18.3204C54.3345 18.1624 53.883 18.0044 53.5106 17.8464C53.1494 17.6883 52.7826 17.4796 52.4102 17.22C52.049 16.9491 51.7725 16.6105 51.5807 16.2042C51.3888 15.7979 51.2929 15.3239 51.2929 14.7821C51.2929 13.71 51.6709 12.8578 52.4271 12.2258C53.1946 11.5825 54.1144 11.2608 55.1866 11.2608C56.1459 11.2608 56.9868 11.4979 57.7091 11.9719C58.4427 12.4346 59.0126 13.0836 59.4189 13.9187L57.4551 15.053C56.9811 14.0373 56.2249 13.5294 55.1866 13.5294C54.7013 13.5294 54.3176 13.6422 54.0354 13.868C53.7645 14.0824 53.6291 14.3646 53.6291 14.7144C53.6291 15.0869 53.7815 15.3916 54.0862 15.6286C54.4022 15.8543 55.0004 16.1026 55.8807 16.3735C56.2419 16.4864 56.5127 16.5767 56.6933 16.6444C56.8852 16.7008 57.1391 16.7967 57.4551 16.9322C57.7824 17.0563 58.0307 17.1748 58.2 17.2877C58.3806 17.4005 58.5838 17.5529 58.8095 17.7448C59.0352 17.9366 59.2045 18.1342 59.3174 18.3373C59.4415 18.5405 59.5431 18.7888 59.6221 19.0822C59.7124 19.3644 59.7575 19.6747 59.7575 20.0133C59.7575 21.1081 59.3569 21.9771 58.5555 22.6204C57.7655 23.2637 56.7328 23.5854 55.4575 23.5854ZM63.2565 20.0133C63.5499 21.0742 64.3456 21.6047 65.6435 21.6047C66.4787 21.6047 67.1107 21.3225 67.5396 20.7582L69.3003 21.774C68.4651 22.9816 67.2349 23.5854 65.6097 23.5854C64.2102 23.5854 63.0872 23.1622 62.2407 22.3157C61.3943 21.4692 60.971 20.4027 60.971 19.1161C60.971 17.8407 61.3886 16.7798 62.2238 15.9333C63.059 15.0756 64.1312 14.6467 65.4404 14.6467C66.6819 14.6467 67.7033 15.0756 68.5046 15.9333C69.3172 16.7911 69.7235 17.852 69.7235 19.1161C69.7235 19.3982 69.6953 19.6973 69.6388 20.0133H63.2565ZM63.2226 18.3204H67.5396C67.4155 17.7448 67.1559 17.3159 66.7609 17.0337C66.3771 16.7516 65.937 16.6105 65.4404 16.6105C64.8535 16.6105 64.3682 16.7629 63.9844 17.0676C63.6007 17.361 63.3468 17.7786 63.2226 18.3204ZM71.2481 23.3484V10.99H73.4319V23.3484H71.2481ZM76.5143 13.868C76.1531 13.868 75.8371 13.7382 75.5662 13.4786C75.3066 13.2077 75.1769 12.8917 75.1769 12.5305C75.1769 12.1694 75.3066 11.8534 75.5662 11.5825C75.8371 11.3116 76.1531 11.1762 76.5143 11.1762C76.8867 11.1762 77.2027 11.3116 77.4623 11.5825C77.7332 11.8534 77.8686 12.1694 77.8686 12.5305C77.8686 12.8917 77.7332 13.2077 77.4623 13.4786C77.2027 13.7382 76.8867 13.868 76.5143 13.868ZM75.4308 23.3484V14.8837H77.6147V23.3484H75.4308ZM84.3199 14.6467C85.2454 14.6467 86.0072 14.9571 86.6053 15.5778C87.2148 16.1986 87.5195 17.0563 87.5195 18.1511V23.3484H85.3356V18.422C85.3356 17.8576 85.1833 17.4288 84.8786 17.1353C84.5738 16.8306 84.1675 16.6782 83.6596 16.6782C83.0953 16.6782 82.6439 16.8532 82.3053 17.203C81.9667 17.5529 81.7974 18.0777 81.7974 18.7775V23.3484H79.6135V14.8837H81.7974V15.8318C82.3279 15.0417 83.1687 14.6467 84.3199 14.6467ZM101.556 11.4979V13.7325H98.3568V23.3484H96.0206V13.7325H92.8379V11.4979H101.556ZM108.433 22.2988C107.564 23.1565 106.504 23.5854 105.251 23.5854C103.998 23.5854 102.937 23.1565 102.068 22.2988C101.21 21.4297 100.781 20.3688 100.781 19.1161C100.781 17.8633 101.21 16.808 102.068 15.9503C102.937 15.0812 103.998 14.6467 105.251 14.6467C106.504 14.6467 107.564 15.0812 108.433 15.9503C109.303 16.808 109.737 17.8633 109.737 19.1161C109.737 20.3688 109.303 21.4297 108.433 22.2988ZM103.609 20.7921C104.049 21.2322 104.596 21.4523 105.251 21.4523C105.905 21.4523 106.453 21.2322 106.893 20.7921C107.333 20.3519 107.553 19.7932 107.553 19.1161C107.553 18.4389 107.333 17.8802 106.893 17.44C106.453 16.9999 105.905 16.7798 105.251 16.7798C104.596 16.7798 104.049 16.9999 103.609 17.44C103.18 17.8802 102.965 18.4389 102.965 19.1161C102.965 19.7932 103.18 20.3519 103.609 20.7921ZM116.86 14.8837H119.044V23.3484H116.86V22.4003C116.33 23.1904 115.489 23.5854 114.338 23.5854C113.412 23.5854 112.645 23.275 112.035 22.6543C111.437 22.0335 111.138 21.1758 111.138 20.081V14.8837H113.322V19.8102C113.322 20.3745 113.474 20.809 113.779 21.1137C114.084 21.4072 114.49 21.5539 114.998 21.5539C115.562 21.5539 116.014 21.3789 116.352 21.0291C116.691 20.6792 116.86 20.1544 116.86 19.4546V14.8837ZM123.228 16.3396C123.431 15.7979 123.764 15.3916 124.227 15.1207C124.701 14.8499 125.226 14.7144 125.801 14.7144V17.1523C125.135 17.0732 124.537 17.2087 124.007 17.5586C123.488 17.9084 123.228 18.4897 123.228 19.3023V23.3484H121.044V14.8837H123.228V16.3396ZM131.412 11.4979H133.749V23.3484H131.412V11.4979ZM140.547 14.6467C141.473 14.6467 142.234 14.9571 142.833 15.5778C143.442 16.1986 143.747 17.0563 143.747 18.1511V23.3484H141.563V18.422C141.563 17.8576 141.411 17.4288 141.106 17.1353C140.801 16.8306 140.395 16.6782 139.887 16.6782C139.323 16.6782 138.871 16.8532 138.533 17.203C138.194 17.5529 138.025 18.0777 138.025 18.7775V23.3484H135.841V14.8837H138.025V15.8318C138.555 15.0417 139.396 14.6467 140.547 14.6467ZM149.641 23.5854C148.365 23.5854 147.299 23.1565 146.441 22.2988C145.595 21.441 145.171 20.3801 145.171 19.1161C145.171 17.852 145.595 16.7911 146.441 15.9333C147.299 15.0756 148.365 14.6467 149.641 14.6467C150.465 14.6467 151.215 14.8442 151.892 15.2392C152.569 15.6343 153.083 16.1647 153.433 16.8306L151.554 17.931C151.384 17.5811 151.125 17.3046 150.775 17.1015C150.436 16.8983 150.053 16.7967 149.624 16.7967C148.969 16.7967 148.427 17.0168 147.999 17.457C147.57 17.8859 147.355 18.4389 147.355 19.1161C147.355 19.7819 147.57 20.335 147.999 20.7751C148.427 21.204 148.969 21.4184 149.624 21.4184C150.064 21.4184 150.453 21.3225 150.792 21.1306C151.142 20.9275 151.401 20.651 151.571 20.3011L153.467 21.3846C153.094 22.0505 152.569 22.5866 151.892 22.9929C151.215 23.3879 150.465 23.5854 149.641 23.5854Z" fill="white"/>
<g clip-path="url(#clip0_66_41)">
<path d="M20.6311 0C9.2384 0 0 9.28106 0 20.7264C0 24.7749 1.16048 28.5494 3.15724 31.7425C3.50871 29.1947 5.68121 27.2313 8.31426 27.2313C9.02024 27.2313 9.68987 27.3744 10.305 27.6271C10.617 26.1264 11.9411 25.0001 13.5258 25.0001C14.3682 25.0001 15.1347 25.3197 15.7165 25.8433C16.6346 22.294 19.8463 19.6762 23.6641 19.6762C28.0061 19.6762 31.5572 23.0611 31.8541 27.347C32.2056 27.2709 32.5723 27.2313 32.9449 27.2313C35.578 27.2313 37.7505 29.1947 38.102 31.7425C40.0987 28.5494 41.2592 24.7749 41.2592 20.7264C41.2653 9.28106 32.0269 0 20.6311 0ZM33.0207 7.32379L21.7764 14.2306L18.5919 18.76C18.1405 19.4023 17.4921 19.8741 16.7437 20.1054L14.8954 20.6777L16.1589 17.6033L8.88389 20.9973C7.83855 21.5757 6.73261 22.0322 5.58728 22.361C5.1146 22.4949 4.73888 21.9561 5.02673 21.5574L6.42961 19.6032L4.17531 18.6839L6.48112 17.2136L9.12932 17.3658L14.1833 14.4101L3.83898 13.1408L6.88714 11.5458C7.32345 11.3175 7.80522 11.1835 8.29608 11.1501L21.3704 10.3099L27.3062 6.93416C28.7272 6.12447 30.3846 5.84442 31.9905 6.13969L32.8237 6.29188C33.3267 6.3832 33.4509 7.04983 33.0177 7.32075L33.0207 7.32379Z" fill="url(#paint0_linear_66_41)"/>
</g>
<defs>
<linearGradient id="paint0_linear_66_41" x1="6.2266" y1="5.88399" x2="35.1684" y2="34.6927" gradientUnits="userSpaceOnUse">
<stop stop-color="#D9ED82"/>
<stop offset="1" stop-color="#D9ED82"/>
</linearGradient>
<clipPath id="clip0_66_41">
<rect width="41.2653" height="31.7425" fill="white"/>
</clipPath>
</defs>
</svg>
