<svg width="70" height="70" viewBox="0 0 70 70" fill="none" xmlns="http://www.w3.org/2000/svg">
<path d="M8.75 13.4978L35.0125 5.83337L61.25 13.4978V29.2159C61.25 45.7366 50.6774 58.945 35.0038 64.1674C19.326 58.9451 8.75 45.7334 8.75 29.2086V13.4978Z" stroke="#333333" stroke-width="1.5" stroke-linejoin="round"/>
<path d="M35 33.5417C39.0271 33.5417 42.2917 30.2771 42.2917 26.25C42.2917 22.223 39.0271 18.9584 35 18.9584C30.9729 18.9584 27.7083 22.223 27.7083 26.25C27.7083 30.2771 30.9729 33.5417 35 33.5417Z" fill="#dbfffb" stroke="#333333" stroke-width="1.5" stroke-linecap="round" stroke-linejoin="round"/>
<path d="M46.6667 45.2083C46.6667 38.7649 41.4433 33.5416 35 33.5416C28.5566 33.5416 23.3333 38.7649 23.3333 45.2083" stroke="#333333" stroke-width="1.5" stroke-linecap="round" stroke-linejoin="round"/>
</svg>
