<svg width="70" height="70" viewBox="0 0 70 70" fill="none" xmlns="http://www.w3.org/2000/svg">
<path d="M56.8546 33.5416C56.3977 49.1589 48.3004 57.6365 36.4613 62.7083C30.0552 59.9647 24.7443 56.2237 21.1458 50.8943" stroke="#333333" stroke-width="1.5" stroke-linejoin="round"/>
<path d="M56.875 27.7083V14.956L36.4681 7.29163L16.0417 14.956V32.1249C16.0417 35.8986 16.4707 39.2713 17.2779 42.2916" stroke="#333333" stroke-width="1.5" stroke-linejoin="round"/>
<path d="M13.5156 44.6718C11.513 42.8393 9.15598 39.018 8.28419 38.7992C8.28419 38.7992 5.66312 45.2658 5.83406 49.5833C6.00501 53.9009 10.0577 56.3429 14.3276 54.2798C18.5976 52.2167 64.1667 29.1667 64.1667 29.1667L51.0417 26.25L13.5156 44.6718Z" fill="#dbfffb" stroke="#333333" stroke-width="1.5" stroke-linecap="round" stroke-linejoin="round"/>
<path d="M40.833 30.625L27.707 26.25L24.7905 27.7083L29.1655 36.4583" stroke="#333333" stroke-width="1.5" stroke-linecap="round" stroke-linejoin="round"/>
</svg>
