<svg width="70" height="70" viewBox="0 0 70 70" fill="none" xmlns="http://www.w3.org/2000/svg">
<path d="M52.5 37.9167V20.4167C52.5 18.8058 51.1942 17.5 49.5834 17.5H14.5834C12.9725 17.5 11.6667 18.8058 11.6667 20.4167V55.4167C11.6667 57.0275 12.9725 58.3333 14.5834 58.3333H39.375" stroke="#333333" stroke-width="1.5" stroke-linecap="round" stroke-linejoin="round"/>
<path d="M23.3333 17.5V58.3333" stroke="#333333" stroke-width="1.5" stroke-linecap="round" stroke-linejoin="round"/>
<path d="M40.8333 17.5V42.2917" stroke="#333333" stroke-width="1.5" stroke-linecap="round" stroke-linejoin="round"/>
<path d="M40.8333 17.5V8.75004C40.8333 7.13921 39.5275 5.83337 37.9167 5.83337H26.25C24.6391 5.83337 23.3333 7.13921 23.3333 8.75004V17.5" stroke="#333333" stroke-width="1.5" stroke-linecap="round" stroke-linejoin="round"/>
<path d="M51.0417 64.1666C58.2904 64.1666 64.1667 58.2904 64.1667 51.0416C64.1667 43.7928 58.2904 37.9166 51.0417 37.9166C43.7929 37.9166 37.9167 43.7928 37.9167 51.0416C37.9167 58.2904 43.7929 64.1666 51.0417 64.1666Z" fill="#dbfffb" stroke="#333333" stroke-width="1.5"/>
<path d="M49.5833 46.6666V52.5H55.4167" stroke="#333333" stroke-width="1.5" stroke-linecap="round" stroke-linejoin="round"/>
<path d="M18.9583 58.3334V64.1667" stroke="#333333" stroke-width="1.5" stroke-linecap="round"/>
</svg>
