<svg width="74" height="74" viewBox="0 0 74 74" fill="none" xmlns="http://www.w3.org/2000/svg">
<rect x="10" y="42" width="53" height="30" fill="#dbfffb" stroke="#333333" stroke-width="1.5" stroke-linecap="round" stroke-linejoin="round"/>
<line x1="16.5" y1="47" x2="16.5" y2="67" stroke="black"/>
<line x1="24.5" y1="47" x2="24.5" y2="67" stroke="black"/>
<line x1="32.5" y1="47" x2="32.5" y2="67" stroke="black"/>
<line x1="40.5" y1="47" x2="40.5" y2="67" stroke="black"/>
<line x1="48.5" y1="47" x2="48.5" y2="67" stroke="black"/>
<line x1="56.5" y1="47" x2="56.5" y2="67" stroke="black"/>
<path d="M35.0178 15.3791V2H37.8404V12.8205C40.8825 13.4579 42.7955 16.1157 42.9837 18.7464C43.0934 20.2497 42.6544 21.8281 41.5254 23.0458C40.412 24.2484 38.6244 25 36.4291 25C34.7042 25 33.1518 24.2183 31.9758 23.1059C30.8154 21.9784 30 20.4902 30 18.8366H32.8225C32.8225 19.5882 33.2616 20.5052 33.9829 21.1817C34.6885 21.8732 35.6451 22.2941 36.4291 22.2941C37.9972 22.2941 38.8753 21.8431 39.4241 21.2418C39.973 20.6556 40.2239 19.8288 40.1611 18.9268C40.0357 17.1379 38.7655 15.3791 36.4291 15.3791H35.0178Z" stroke="black"/>
<path d="M10.5 41.5L27 21.5" stroke="black"/>
<path d="M63.5 41.5L47 21.5" stroke="black"/>
</svg>
